<?xml version="1.0" standalone="no"?>
<!DOCTYPE svg PUBLIC "-//W3C//DTD SVG 1.1//EN" "http://www.w3.org/Graphics/SVG/1.1/DTD/svg11.dtd" >
<svg xmlns="http://www.w3.org/2000/svg">
<metadata>Generated by IcoMoon</metadata>
<defs>
<font id="Oscar-Origins" horiz-adv-x="1024">
<font-face units-per-em="1024" ascent="832" descent="-192" />
<missing-glyph horiz-adv-x="1024" />
<glyph unicode="&#x20;" horiz-adv-x="512" d="" />
<glyph unicode="&#xe900;" glyph-name="addressbook" d="M896.174 607.616c-4.723 51.414-46.028 92.583-97.532 96.62l-480.3-0.056c-43.964-0.346-96.58-49.343-96.58-93.487v-91.457h-81.235c-8.591 0-14.483-11.578-10.135-19.332 0.728-1.302 5.988-6.216 7.068-6.216h82.77l1.532-1.532v-158.898h-83.28c-4.603 0-9.807-8.291-9.807-12.772 0-4.459 5.452-12.772 9.807-12.772h83.28v-159.41l-0.002 0.002h-81.237c-8.591 0-14.483-11.578-10.135-19.332 0.73-1.302 5.988-6.216 7.068-6.216h82.77c1.46-0.898 1.412-2.037 1.586-3.525 4.027-34.309-5.898-74.001 4.321-108.084 11.372-37.926 46.002-67.511 85.177-73.209 165.188-1.837 331.033-2.121 496.201 0.144 48.203 7.716 85.385 48.543 88.722 97.254l-0.060 572.279zM870.676 36.375c-3.665-40.523-35.485-71.36-76.124-74.087l-473.146 0.056c-32.674-0.218-74.097 37.214-74.097 69.984v90.438h37.298c1.124 0 5.512 3.371 6.486 4.755 5.544 7.868-0.038 20.792-9.553 20.792h-34.231v159.41h36.277c1.174 0 6.684 4.231 7.666 5.618 3.343 4.737 2.907 11.732-1.006 16.079-0.65 0.72-5.298 3.847-5.638 3.847h-37.298v160.43h37.298c1.124 0 5.512 3.371 6.486 4.755 5.544 7.868-0.038 20.792-9.553 20.792h-34.231v89.412c0 32.134 39.296 68.721 71.15 69.866l478.145 0.18c35.631-2.823 64.746-28.663 72.555-63.35 3.469-192.744 0.448-386.031 1.518-578.975zM568.524 254.331c73.057 0 132.279 59.223 132.279 132.279v0c0 73.057-59.223 132.279-132.279 132.279s-132.279-59.223-132.279-132.279 59.223-132.279 132.279-132.279zM568.514 493.33c58.926 0 106.693-47.767 106.693-106.693s-47.767-106.693-106.693-106.693-106.693 47.767-106.693 106.693 47.769 106.693 106.693 106.693zM747.48 172.802c-53.683 44.75-122.87 66.263-192.804 62.059l-0.002-0.002c-58.598-3.525-121.266-29.999-164.321-69.684-4.387-4.045-12.792-11.32-13.658-17.081-1.154-7.66 5.19-14.993 13.002-14.769 7.122 0.204 16.861 12.236 22.669 16.991 103.034 84.398 244.628 78.643 339.006-15.515 8.243-4.385 19.486 2.461 19.052 11.892-0.34 7.346-17.017 21.169-22.945 26.11z" />
<glyph unicode="&#xe901;" glyph-name="auto" d="M466.778 583.63c-0.492-17.88 5.272-35.039 20.664-45.248 26.526-17.595 62.482-2.117 68.555 28.669 0.798 4.049 0.482 12.254 1.366 14.989 0.36 1.116 1.106 1.609 2.257 1.615 27.519-5.534 54.351-14.501 79.069-27.765 7.054-3.785 20.568-11.111 26.252-16.089 1.498-1.312 0.824-0.706 0.046-1.869-2.609-3.903-6.766-7.598-9.447-11.732-27.289-42.077 21.387-89.376 62.678-61.717 2.331 1.562 11.107 10.359 13.168 9.035 21.901-32.382 36.589-68.425 44.256-106.843-9.019-1.426-18.11-1.506-26.644-5.134-26.51-11.272-35.107-46.627-16.689-68.988 11.418-13.862 26.136-16.627 43.32-17.786-5.782-28.403-14.713-55.265-28.363-80.831-4.149-7.772-9.579-14.923-13.024-23.069-1.452-0.39-1.592 0.378-2.407 0.946-5.288 3.677-9.659 9.591-15.571 13.294-38.73 24.256-84.302-17.92-63.328-58.518 4.309-8.339 11.394-14.050 17.8-20.67-32.872-24.69-71.73-40.573-112.031-48.609-2.617 11.286-3.443 22.095-10.709 31.688-17.708 23.377-52.088 24.398-70.614 1.506-8.143-10.063-9.499-20.798-11.58-33.18-38.836 7.008-74.799 23.079-107.746 44.28 8.099 10.367 16.715 19.428 18.162 33.298 3.649 34.941-31.228 60.611-63.384 46.066-7.574-3.425-12.754-10.389-20.188-13.946-21.391 33.13-36.275 68.503-44.262 107.29 8.967 1.967 17.746 1.783 26.308 5.412 23.799 10.093 33.663 38.222 22.143 61.317-9.229 18.504-27.813 24.944-47.509 25.134 5.662 39.994 23.167 77.492 45.736 110.651 0.75 1.202 1.29 0.908 2.413 0.59 3.743-1.060 11.782-8.435 17.303-10.675 35.419-14.366 71.434 19.34 59.371 55.523-2.415 7.244-7.754 13.148-10.869 19.996 30.828 21.051 66.605 35.421 103.496 41.365zM577.44 554.769c-14.493-44.942-67.469-62.173-106.169-34.483-12.118 8.671-19.634 20.588-25.132 34.249-6.552-1.048-49.824-17.453-50.254-21.397 18.192-47.729-19.078-97.799-70.046-93.819-7.852 0.614-15.015 3.933-22.635 5.352-10.891-17.774-18.594-37.184-24.854-57.034-0.232-1.19 0.568-1.572 1.382-2.111 4.213-2.787 10.877-4.435 16.085-7.978 21.781-14.815 33.152-41.361 29.263-67.391-3.757-25.15-22.371-47.533-46.887-54.643 0.474-6.978 18.844-53.051 22.573-53.627 53.219 25.938 112.509-21.547 97.422-79.331-0.802-3.071-5.278-12.388-4.109-14.232 0.906-1.43 21.351-10.637 24.624-11.994 9.293-3.855 18.79-6.992 28.379-10.011 23.197 59.114 107.089 59.835 129.408-0.13 20.196 5.648 39.252 14.29 57.704 24.082-33.601 56.044 18.234 122.98 81.343 102.006 2.235-0.744 10.857-5.586 11.946-4.816 6.944 15.621 14.817 31.174 18.288 48.023-62.706 19.57-62.942 111.053 0.034 129.947-3.761 19.11-13.202 36.317-21.243 53.811-0.786 0.568-13.592-4.675-16.257-5.256-58.048-12.678-103.38 45.808-76.998 98.627-17.181 9.093-35.137 16.771-53.869 22.157zM819.89 180.48c-9.175 2.953-27.645 3.129-33.15 11.6-6.452 9.927 0.35 16.855 6.676 24.020 16.907 19.15 36.067 36.561 52.909 55.813 9.681 8.415 19.77 5.202 24.576-6.256 10.455-24.926 15.049-56.384 24.744-82.048 2.011-9.031-5.528-17.802-14.655-17.626-6.626 0.128-33.653 9.665-37.090 7.33-1.25-0.85-11.151-23.303-13.262-27.146-81.267-147.91-251.026-223.268-416.022-179.964-131.037 34.391-237.612 144.527-264.877 277.775-1.048 5.116-3.923 15.991-3.319 20.614 1.414 10.817 17.081 13.974 22.499 4.339 2.953-5.25 4.938-23.393 6.804-30.72 47.227-185.51 236.456-298.799 423.078-247.953 82.136 22.379 154.908 77.406 199.94 149.319 2.823 4.509 22.863 38.926 21.149 40.903zM197.394 463.385c1.046-1.486 29.289-7.652 34.573-11.139 2.195-1.448 5.062-5.294 5.596-7.87 2.179-10.501-3.819-14.543-10.347-20.961-18.35-18.048-38.764-34.471-57.264-52.42-7.418-5.996-21.107-5.162-23.355 5.504-6.064 28.777-11.087 57.922-18.386 86.503 0.588 29.263 29.945 11.157 46.060 8.057 2.247 7.408 6.372 15.217 10.095 22.145 77.766 144.703 241.073 220.715 402.862 185.374 131.535-28.733 239.205-131.487 274.718-261.198 2.671-9.755 9.575-35.055 7.924-43.94-1.763-9.481-17.183-11.199-21.951-2.801-15.561 93.205-66.455 176.401-143.759 230.518-160.84 112.601-383.090 66.797-486.6-98.813-2.871-4.593-21.695-36.793-20.168-38.96zM623.755 320.612c0-61.687-50.008-111.695-111.695-111.695s-111.695 50.008-111.695 111.695 50.008 111.695 111.695 111.695 111.695-50.008 111.695-111.695zM599.675 320.632c0 48.383-39.222 87.607-87.607 87.607s-87.607-39.222-87.607-87.607 39.222-87.607 87.607-87.607 87.607 39.222 87.607 87.607zM486.732 373.645c3.063 0.532 6.652 0.618 9.607-0.514 20.112-13.544 47.795-23.917 66.977-37.898 9.647-7.032 10.135-20.268 1.544-28.165-21.917-9.975-44.99-29.139-66.641-38.234-10.703-4.497-23.429 1.204-24.708 13.156-2.633 24.594 1.919 53.753 0.064 78.837 1.675 6.236 6.612 11.68 13.156 12.818zM497.567 345.014v-48.107l42.333 23.103-42.333 25.004z" />
<glyph unicode="&#xe902;" glyph-name="backyard" d="M230.632 414.121v-70.168l22.925 25.258c5.296 4.179 13.134 4.065 18.15-0.556l32.368-35.911 32.258 36.023c5.074 4.559 13.236 4.645 18.41 0.124l32.598-36.147 32.752 36.465c10.695 7.076 15.809 1.302 22.941-6.052l27.563-30.422 32.268 36.035c4.385 3.973 12.368 4.952 16.881 0.932l34.121-36.972 33.206 36.972c3.561 3.549 11.446 3.069 15.461 0.454l23.853-26.202v68.297l-172.146 0.936v71.574c0 0.462 2.599 4.367 3.253 5.168l168.895 137.977v19.648c5.302 3.079 13.444 0.644 19.648 1.404v-21.985l171.179-139.434c0.53-0.65 1.903-4.083 1.903-4.645v-70.168l-173.084-0.468v-68.297c7.38 4.515 21.173 26.798 28.585 28.009 3.979 0.65 8.317 0.128 11.58-2.345l33.278-36.872c2.719 0.014 30.762 36.986 37.618 39.078 3.801 0.46 7.89 0.74 11.222-1.482l34.427-37.59 33.448 36.701c5.814 4.521 13.362 3.405 18.518-1.598 13.644-13.232 24.666-29.757 38.314-43.081l2.751-5.67 0.062-211.384c0.61-3.919-5.412-11.692-8.891-11.692h-124.901l19.542-87.377c-1.228-10.627-4.956-16.481-14.617-20.931-13.728-6.326-29.703-10.865-37.474 6.058l-24.484 101.818-137.443 0.306-23.027-99.069c-1.727-6.902-8.597-14.172-15.919-14.945-6.852-0.726-24.272 5.346-29.483 9.813-5.538 4.749-8.045 12.432-7.47 19.646l19.284 82.748-1.048 1.931h-124.433c-4.539-3.151-7.948-7.728-12.192-11.199-13.876-11.35-30.379-19.244-48.061-22.573-1.33-18.944 1.474-39.63-0.108-58.37-1.27-15.081-11.876-25.588-27.629-21.111-5.414 1.54-13.52 9.837-13.52 15.483v54.733l-56.598-60.819c-22.621-13.282-41.845 15.223-25.278 33.699l46.322 50.946-23.113 19.020-87.695 0.252c-4.966 0.996-7.978 4.555-9.481 9.229l0.238 215.079 2.159 4.391c13.754 12.644 25.412 31.058 38.796 43.536 5.292 4.934 13.032 5.214 18.762 0.914l22.909-25.274v70.168c-35.139 3.931-60.393 34.049-62.724 68.727-2.497 37.21 1.020 78.431 1.214 115.812 16.267 81.896 132.745 78.461 143.827-4.455-2.207-37.672 2.987-78.763 0.048-116.032-2.493-31.608-30.924-61.629-62.718-64.054l0.002-0.012zM230.632 433.768c22.623 3.627 40.209 22.771 43.071 45.342-2.675 36.633 3.463 78.11-0.040 114.166-5.83 59.975-100.8 62.496-105.749-4.633-2.517-34.147 1.985-71.322 0-105.793 1.607-23.711 19.356-45.036 43.073-49.083v101.978h19.648l-0.002-101.978zM713.393 431.895v46.312l-64.724 105.553-2.637 2.507v-154.372h67.361zM626.384 431.895v153.436c-23.111-34.961-44.37-71.394-66.427-107.125v-46.312h66.427zM473.884 478.207v-45.376l66.427-0.936v50.99l58.938 96.37-1.388 0.454-123.977-101.502zM799.468 430.961v45.376l-122.1 99.633c-0.752-1.675 1.663-4.343 2.545-5.874 17.079-29.713 37.156-57.772 53.129-88.144v-50.99h66.425zM313.9 177.419h62.217l1.404 1.404v134.724l-32.278 36.003-31.342-35.069v-137.061zM399.037 114.734h60.345l1.404 1.404v197.408l-32.276 36.003-31.342-35.069v-137.063h13.566c1.334-0.822 1.292-1.865 1.452-3.227 2.325-19.828-4.932-41.777-13.148-59.455v0zM480.434 235.424c1.31-0.54 2.803 0.936 3.273 0.936h58.942l1.404 1.404v75.782l-32.276 35.997-31.342-35.063v-79.055zM626.384 236.358v78.12l-31.342 35.063-31.342-35.063v-78.12h62.684zM709.652 236.358v78.12l-31.342 35.069-32.276-36.003v-75.782l1.404-1.404h62.215zM792.918 235.424v79.057l-31.342 35.069-32.278-36.003v-77.186h60.345c0.472-0.002 1.967-1.48 3.275-0.938v0zM876.186 114.734v199.748l-31.338 35.081-32.282-36.017v-197.408l1.404-1.404h62.217zM147.366 314.482v-198.344l1.404-1.404h60.813c0.964 0 1.434 1.875 1.254 3.057-0.344 2.267-5.162 10.677-6.414 14.236-5.202 14.787-6.344 29.199-5.614 44.852l10.645 0.67 1.536 2.207-0.194 134.534-31.28 34.273-32.148-34.081zM230.632 314.482v-135.66l1.404-1.404h60.813l1.404 1.404v134.724l-31.47 35.015c-2.669 0.464-27.573-30.704-32.15-34.079v0zM482.599 169.297c1.498-1.372 4.607-2.197 6.674-2.219l296.573 0.104c3.343 0.526 6.484 3.655 7.018 7.018 0.894 5.654 0.894 29.793 0 35.445-0.488 3.079-2.859 5.394-5.512 6.65l-299.84 0.36c-3.899-0.808-6.61-2.721-7.122-6.918-0.874-7.18-0.874-28.449 0-35.627 0.194-1.586 1.058-3.761 2.209-4.812v0zM391.554 157.771h-173.084c6.834-52.71 56.812-88.362 109.116-74.969 33.721 8.637 61.643 39.846 63.968 74.969v0zM522.535 147.478h-38.826c-0.472 0-1.967 1.478-3.273 0.936v-33.681h34.149l7.95 32.746zM792.918 148.416c-1.31 0.54-2.803-0.936-3.273-0.936h-39.764c3.419-10.593 3.807-22.983 8.889-32.746h34.149l-0.002 33.681zM559.021 147.478h-15.905l-31.766-137.193c-0.684-6.132 9.559-5.91 13.534-8.717l34.137 145.91zM626.384 147.478h-46.779l-7.484-32.746h54.265v32.746zM693.747 147.478h-47.715v-31.342l1.404-1.404h52.394l1.048 1.931-7.13 30.814zM730.234 147.478h-15.905l33.228-145.966c3.701 2.243 14.298 2.897 14.174 7.774l-31.496 138.193zM267.394 68.471l-53.159-58.142 2.239-2.049 53.159 58.142-2.239 2.049zM305.479 60.469h-1.871v-58.942h1.871v58.942z" />
<glyph unicode="&#xe903;" glyph-name="bar" d="M544.972 211.92v0.004c97.865 109.238 193.1 221.259 289.386 331.746 8.657 13.636-5.162 38.386-20.668 38.386h-98.929v-24.608h95.976c4.98 0-4.147-9.935-4.908-10.841-94.047-111.845-195.257-217.946-289.404-329.757l-3.947-2.973-298.849 339.126 0.092 4.445h372.088v24.608h-374.549c-0.39 0-6.466-2.043-7.388-2.457-14.997-6.726-20.606-27.643-10.251-40.775l295.214-336.747 11.334-10.323v-242.644h-182.599c-0.794 0-4.771-4.089-5.456-5.362-3.307-6.13-0.826-12.506 5.012-15.753l391.474 0.206c6.024 3.767 7.862 10.923 3.661 16.933-0.692 0.99-4.067 3.977-4.882 3.977h-181.123l-1.478 1.476v241.169c7.574 5.722 13.87 13.108 20.194 20.166zM563.65 412.735v0c20.402-24.49 58.518-23.173 77.118 2.639 17.231 23.913 9.737 57.752-16.375 71.388-1.216 2.057 4.523 18.516 5.694 21.979 19.57 57.878 70.91 131.239 128.688 154.81 23.661 9.653 5.046 42.187-14.413 29.179-5.594-3.739-5.074-8.369-7.992-11.696-5.25-5.988-28.285-19.83-36.842-27.142-49.692-42.467-83.702-97.849-100.061-161.288-40.155-0.926-61.665-48.845-35.817-79.869z" />
<glyph unicode="&#xe904;" glyph-name="battery-0" d="M224.484 565.029l527.267 0.348c54.573-4.523 95.402-47.195 98.657-101.722 0.534-8.935-0.894-18.932-0.092-27.695 1.158-12.67 12.822-8.621 22.081-11.654 13.038-4.271 22.257-16.713 23.963-30.223l-0.45-149.815c-2.501-12.702-12.15-23.759-24.53-27.609-8.883-2.765-19.936 0.684-21.065-11.65-0.832-9.079 0.656-19.392 0.038-28.663-3.309-49.624-40.213-91.943-89.722-99.411-176.595-3.049-353.609-0.388-530.362-1.344-54.601 3.269-97.026 44.146-101.67 98.711v292.369c3.721 51.524 44.368 93.553 95.886 98.361v-0.002zM226.527 539.473c-38.72-3.801-69.070-35.159-72.369-73.827l0.004-290.317c4.217-41.113 35.881-71.54 77.128-74.179h516.371c42.449 2.851 74.221 34.925 77.134 77.24 1.596 23.151-5.664 51.542 24.32 60.533 7.802 2.339 18.006-0.39 21.479 9.191l0.238 142.937c-2.103 11.954-12.712 8.663-21.493 11.222-32.862 9.571-21.907 45.444-25.84 70.26-5.808 36.647-36.85 64.57-73.795 67.289l-523.177-0.35z" />
<glyph unicode="&#xe905;" glyph-name="battery-1" d="M872.397 424.303c-9.261 3.033-20.925-1.016-22.083 11.654-0.802 8.763 0.624 18.76 0.092 27.695-3.255 54.527-44.086 97.202-98.657 101.722l-527.265-0.35c-51.518-4.806-92.165-46.837-95.886-98.361v-292.369c4.643-54.563 47.067-95.442 101.67-98.711 176.753 0.956 353.767-1.705 530.362 1.344 49.509 7.468 86.413 49.788 89.722 99.413 0.618 9.271-0.87 19.584-0.038 28.663 1.13 12.334 12.182 8.885 21.065 11.65 12.38 3.853 22.029 14.907 24.53 27.609l0.45 149.815c-1.705 13.514-10.925 25.954-23.963 30.225zM870.594 248.112c-3.473-9.581-13.678-6.852-21.479-9.191-29.985-8.989-22.725-37.382-24.32-60.533-2.913-42.315-34.685-74.391-77.134-77.24h-516.371c-41.245 2.639-72.911 33.066-77.128 74.179l-0.004 290.317c3.299 38.668 33.649 70.026 72.369 73.827l523.175 0.348c36.946-2.719 67.989-30.642 73.795-67.289 3.933-24.818-7.020-60.691 25.84-70.26 8.781-2.559 19.39 0.732 21.493-11.222l-0.236-142.935zM278.623 426.071c-6.556-0.952-10.419-6.106-10.999-12.55l0.978-190.207c5.014-12.508 22.957-10.583 24.606 3.091l-0.798 192.474c-3.269 4.864-7.696 8.077-13.788 7.192z" />
<glyph unicode="&#xe906;" glyph-name="battery-2" d="M872.397 424.303c-9.261 3.033-20.925-1.016-22.083 11.654-0.802 8.763 0.624 18.76 0.092 27.695-3.255 54.527-44.086 97.202-98.657 101.722l-527.265-0.35c-51.518-4.806-92.165-46.837-95.886-98.361v-292.369c4.643-54.563 47.067-95.442 101.67-98.711 176.753 0.956 353.767-1.705 530.362 1.344 49.509 7.468 86.413 49.788 89.722 99.413 0.618 9.271-0.87 19.584-0.038 28.663 1.13 12.334 12.182 8.885 21.065 11.65 12.38 3.853 22.029 14.907 24.53 27.609l0.45 149.815c-1.705 13.514-10.925 25.954-23.963 30.225zM870.594 248.112c-3.473-9.581-13.678-6.852-21.479-9.191-29.985-8.989-22.725-37.382-24.32-60.533-2.913-42.315-34.685-74.391-77.134-77.24h-516.371c-41.245 2.639-72.911 33.066-77.128 74.179l-0.004 290.317c3.299 38.668 33.649 70.026 72.369 73.827l523.175 0.348c36.946-2.719 67.989-30.642 73.795-67.289 3.933-24.818-7.020-60.691 25.84-70.26 8.781-2.559 19.39 0.732 21.493-11.222l-0.236-142.935zM278.623 426.071c-6.556-0.952-10.419-6.106-10.999-12.55l0.978-190.207c5.014-12.508 22.957-10.583 24.606 3.091l-0.798 192.474c-3.269 4.864-7.696 8.077-13.788 7.192zM417.665 426.077v-0.002c-7.21-1.042-10.313-6.95-10.987-13.596l-0.056-183.027c0.584-16.223 21.263-20.434 25.624-4.069l-0.796 193.496c-3.493 5.132-7.244 8.145-13.786 7.198z" />
<glyph unicode="&#xe907;" glyph-name="battery-3" d="M872.397 424.303c-9.261 3.033-20.925-1.016-22.083 11.654-0.802 8.763 0.624 18.76 0.092 27.695-3.255 54.527-44.086 97.202-98.657 101.722l-527.265-0.35c-51.518-4.806-92.165-46.837-95.886-98.361v-292.369c4.643-54.563 47.067-95.442 101.67-98.711 176.753 0.956 353.767-1.705 530.362 1.344 49.509 7.468 86.413 49.788 89.722 99.413 0.618 9.271-0.87 19.584-0.038 28.663 1.13 12.334 12.182 8.885 21.065 11.65 12.38 3.853 22.029 14.907 24.53 27.609l0.45 149.815c-1.705 13.514-10.925 25.954-23.963 30.225zM870.594 248.112c-3.473-9.581-13.678-6.852-21.479-9.191-29.985-8.989-22.725-37.382-24.32-60.533-2.913-42.315-34.685-74.391-77.134-77.24h-516.371c-41.245 2.639-72.911 33.066-77.128 74.179l-0.004 290.317c3.299 38.668 33.649 70.026 72.369 73.827l523.175 0.348c36.946-2.719 67.989-30.642 73.795-67.289 3.933-24.818-7.020-60.691 25.84-70.26 8.781-2.559 19.39 0.732 21.493-11.222l-0.236-142.935zM572.323 410.488c-0.342 3.895-1.621 9.641-4.473 12.396v-0.002c-8.503 8.231-21.943 0.866-22.149-10.385l0.014-182.991c2.973-20.27 24.916-19.722 26.606 1.995 4.485 57.558-3.457 120.83 0.002 178.986zM278.623 426.071c-6.556-0.952-10.419-6.106-10.999-12.55l0.978-190.207c5.014-12.508 22.957-10.583 24.606 3.091l-0.798 192.474c-3.269 4.864-7.696 8.077-13.788 7.192zM417.665 426.077v-0.002c-7.21-1.042-10.313-6.95-10.987-13.596l-0.056-183.027c0.584-16.223 21.263-20.434 25.624-4.069l-0.796 193.496c-3.493 5.132-7.244 8.145-13.786 7.198z" />
<glyph unicode="&#xe908;" glyph-name="battery-4" d="M872.397 424.303c-9.261 3.033-20.925-1.016-22.083 11.654-0.802 8.763 0.624 18.76 0.092 27.695-3.255 54.527-44.086 97.202-98.657 101.722l-527.265-0.35c-51.518-4.806-92.165-46.837-95.886-98.361v-292.369c4.643-54.563 47.067-95.442 101.67-98.711 176.753 0.956 353.767-1.705 530.362 1.344 49.509 7.468 86.413 49.788 89.722 99.413 0.618 9.271-0.87 19.584-0.038 28.663 1.13 12.334 12.182 8.885 21.065 11.65 12.38 3.853 22.029 14.907 24.53 27.609l0.45 149.815c-1.705 13.514-10.925 25.954-23.963 30.225zM870.594 248.112c-3.473-9.581-13.678-6.852-21.479-9.191-29.985-8.989-22.725-37.382-24.32-60.533-2.913-42.315-34.685-74.391-77.134-77.24h-516.371c-41.245 2.639-72.911 33.066-77.128 74.179l-0.004 290.317c3.299 38.668 33.649 70.026 72.369 73.827l523.175 0.348c36.946-2.719 67.989-30.642 73.795-67.289 3.933-24.818-7.020-60.691 25.84-70.26 8.781-2.559 19.39 0.732 21.493-11.222l-0.236-142.935zM572.323 410.488c-0.342 3.895-1.621 9.641-4.473 12.396v-0.002c-8.503 8.231-21.943 0.866-22.149-10.385l0.014-182.991c2.973-20.27 24.916-19.722 26.606 1.995 4.485 57.558-3.457 120.83 0.002 178.986zM278.623 426.071c-6.556-0.952-10.419-6.106-10.999-12.55l0.978-190.207c5.014-12.508 22.957-10.583 24.606 3.091l-0.798 192.474c-3.269 4.864-7.696 8.077-13.788 7.192zM417.665 426.077v-0.002c-7.21-1.042-10.313-6.95-10.987-13.596l-0.056-183.027c0.584-16.223 21.263-20.434 25.624-4.069l-0.796 193.496c-3.493 5.132-7.244 8.145-13.786 7.198zM689.179 422.886v0.002c-1.138-1.088-1.973-3.357-2.941-4.727l-0.492-192.776c4.137-15.671 23.873-12.874 25.584 3.087l0.032 183.037c0.742 11.728-13.338 19.824-22.183 11.376z" />
<glyph unicode="&#xe909;" glyph-name="battery-5" d="M895.53 394.863c-2.043 13.126-11.099 25.084-23.819 29.249-9.245 3.027-20.887-1.014-22.043 11.634-0.828 9.061 0.634 19.354 0.038 28.613-3.417 53.067-44.732 96.968-98.427 100.571-12.212 0.82-44.964 1.715-55.935-0.278v-0.002c-12.862-2.341-13.6-20.266-1.811-24.81 45.778-1.046 88.792 6.932 117.431-36.665 17.658-26.882 10.053-44.13 13.348-72.375 1.663-14.274 14.423-27.112 28.411-29.757 7.608-1.44 14.495 0.914 17.343-9.189l-0.158-143.617c-3.467-9.563-13.654-6.84-21.439-9.173-34.533-10.355-20.406-51.692-27.405-78.729-20.306-78.431-112.993-55.449-172.842-58.814-13.812-4.491-12.48-23.303 2.071-25.366 71.516 1.647 155.549-17.071 190.412 63.516 11.043 25.524 6.638 40.129 8.959 65.538 1.1 12.028 10.981 8.853 19.482 11.135 14.248 3.819 25.256 16.879 26.526 31.642 4.035 46.811-2.997 99.459-0.142 146.878zM329.705 564.821c-34.053-1.781-71.030 2.747-104.741-0.24-51.82-4.593-92.481-47.491-95.766-99.149l0.054-290.877c4.631-54.455 46.979-95.268 101.486-98.533 12.806-0.768 38.886-1.512 50.978 0.132 15.729 2.139 16.359 23.905 0.14 25.474-15.753 1.526-34.015-1.122-50.098-0.094-41.201 2.635-72.787 33.042-76.988 74.045l-0.058 288.83c2.973 40.077 34.757 72.245 75.007 75.007 32.416 2.223 67.303-1.803 99.987 0.024 13.802 3.379 13.896 21.941 0 25.382zM562.444 333.234l-121.952-0.002 84.218 168.349c3.713 14.196-11.834 22.549-21.979 12.802l-95.842-192.96c-0.402-5.278 5.264-13.702 10.643-13.702h119.909l-83.198-167.33c-4.187-13.718 10.655-23.345 20.991-13.852l95.058 188.641c2.417 4.501 0.934 11.58-2.717 15.017-0.552 0.514-4.832 3.035-5.13 3.035z" />
<glyph unicode="&#xe90a;" glyph-name="bluetooth" d="M501.917 294.89l-215.939-171.77-13.854 17.742 0.784 0.942 219.657 176.717-220.485 175.989 13.932 18.162 215.905-171.25v352.28c0 0.522 2.687 6.162 3.325 6.914 2.945 3.475 8.413 4.583 12.77 3.591 79.369-61.335 158.019-124.217 235.195-188.271 4.679-6.406 5.536-13.238-0.098-19.444l-219.054-175.563-2.283-3.103 230.704-186.372c-40.229-45.464-91.581-79.329-139.063-116.746-11.422-8.999-22.219-18.818-33.57-27.855-12.768-10.167-52.53-44.9-64.686-48.863-8.915-2.907-17.521-0.67-21.191 8.541-0.394 0.986-2.051 6.71-2.051 7.256v341.103h0.002zM525.186 344.218l202.895 163.309-202.895 161.51v-324.818zM525.186-34.581c28.661 21.895 55.957 45.57 84.268 67.903 34.275 27.038 71.22 52.422 103.748 81.463 2.187 1.953 15.047 13.374 14.809 14.775l-202.827 162.537 0.002-326.678z" />
<glyph unicode="&#xe90b;" glyph-name="cafe" d="M878.136 303.535c-29.291 52.234-87.415 80.037-146.716 66.667l0.002 0.002v36.725c0 3.775-8.347 9.787-12.514 8.869-194.007-0.67-388.287 1.152-582.126-0.914-4.701-1.366-7.748-5.898-7.898-10.701 2.353-71.396-2.965-144.615 0.002-215.799 5.478-131.441 108.114-239.157 239.469-249.59 36.503-2.899 87.125-2.901 123.641 0 100.285 7.966 190.806 75.892 223.67 171.019 26.716-7.144 52.224-8.763 79.177-1.546 85.121 22.799 127.144 117.067 83.292 195.267zM152.174 392.517h556.002v-133.886c-6.572 2.543-12.472 6.536-18.896 9.461-71.554 32.594-185.358 30.932-252.517-11.866-34.751-22.147-48.721-35.347-91.931-43.814-63.338-12.412-138.991-4.795-192.656 32.736v147.37zM701.209 140.542c-26.9-105.675-115.378-173.214-223.188-178.472-104.409-5.090-196.051-3.341-268.678 81.768-41.269 48.365-60.535 109.24-57.162 172.946 6.416-2.859 12.484-6.554 18.89-9.457 72.101-32.678 181.213-32.808 249.728 9.075 13.218 8.079 24.404 18.544 38.18 25.974 63.742 34.379 182.113 34.487 242.438-7.712 2.105-1.472 6.292-3.969 6.746-6.272 0.52-29.705 0.406-58.94-6.954-87.851zM723.048 132.189v0c4.561 17.477 6.746 35.435 8.413 53.415l-0.032 161.346c47.399 10.429 91.737-4.689 119.761-44.328 64.782-91.637-26.392-201.579-128.142-170.433zM340.979 515.773c10.913-6.758 22.387-0.206 19.024 12.518-1.274 4.822-12.558 12.176-16.775 16.693-31.19 33.416-32.166 88.616-2.285 123.182 4.962 5.738 12.656 10.209 16.725 14.887 7.26 8.351 0.42 21.437-10.463 19.828h-0.002c-11.31-1.673-32.666-29.983-38.058-40.111-24.242-45.532-14.16-118.517 31.834-146.996zM499.416 520.799c6.574-5.668 15.997-13.31 23.211-3.635 9.317 12.5-8.471 20.728-15.759 28.751-30.532 33.611-31.23 87.227-1.857 121.824 4.982 5.868 13.152 10.647 17.223 15.319 7.14 8.191 0.402 21.429-10.461 19.824h-0.002c-8.949-1.322-26.926-22.499-32.148-30.215-32.216-47.619-23.761-114.31 19.794-151.869z" />
<glyph unicode="&#xe90c;" glyph-name="calendar-event" d="M811.742 622.074c-32.628 5.264-68.475 0.498-101.576 2.153v71.17c0 2.219-5.662 7.156-8.101 7.71-5.626 1.276-15.155-2.655-15.155-8.641v-70.238h-348.867v71.17c0 0.312-2.845 4.543-3.501 5.132-6.452 5.806-18.276 2.247-19.758-6.062h-0.004v-70.238c-50.010-2.615-104.319 10.163-147.3-21.555-22.005-16.239-36.265-40.721-38.754-68.233 0.764-171.98-1.6-344.226 1.19-516.045 8.303-47.213 51.348-78.15 97.833-80.789l571.253 0.054c48.671 3.359 93.109 38.45 97.266 88.798l0.006 508.037c-3.267 45.082-41.007 80.555-84.532 87.577zM151.977 535.385c0 6.45 6.374 21.565 9.843 27.369 31.53 52.762 101.794 35.125 152.964 38.218v0-76.752c0-7.080 12.594-11.598 18.936-6.84 0.878 0.66 4.323 5.398 4.323 5.91v76.286l1.396 1.396h347.473v-76.752c0-7.080 12.594-11.598 18.936-6.84 0.878 0.66 4.323 5.398 4.323 5.91v76.286l3.209 1.444c47.557-3.239 106.817 12.494 142.4-27.943 7.008-7.964 17.199-26.172 17.199-36.761v-89.776h-721.001v88.844zM872.977 25.57c0-32.758-43.846-64.7-74.903-64.646l-569.388-0.056c-32.388-0.628-76.706 31.458-76.706 65.631v396.78h720.999v-397.71zM314.748 64.608c0.506-5.394 2.307-7.902 6.786-10.891l102.148-0.29c4.231 2.591 6.962 5.116 7.436 10.241 2.505 27.146-1.979 58.094-0.024 85.653-1.136 7.106-5.73 10.111-12.542 10.715-29.757 2.635-63.6-1.861-93.777-0.262l-0.002 0.002c-5.47-1.016-9.275-4.89-10.013-10.455 1.959-27.227-2.529-57.9-0.012-84.714zM338.042 136.743h69.774v-60.471h-69.774v60.471z" />
<glyph unicode="&#xe90d;" glyph-name="call-answer" d="M887.227 222.692l-221.085 87.877c-4.177-0.582-7.91-1.763-10.011-5.692l-60.283-99.899c-84.762 42.879-155.233 114.26-199.054 198.396l100.081 60.759c3.931 2.101 5.11 5.834 5.692 10.011l-90.672 226.667-4.407 3.041-189.881 0.438c-61.555-9.013-92.689-54.929-88.26-115.636 24.972-342.405 310.091-626.432 652.24-651.304 60.951-4.431 106.565 28.291 114.97 89.856l-0.428 187.631c-1.404 4.523-4.783 6.21-8.903 7.856zM818.556-37.252c-20.652-5.686-48.961-1.076-70.366 1.727-295.392 38.68-534.707 268.296-586.899 561.151-4.363 24.472-12.548 71-8.255 94.261 6.158 33.37 35.259 58.626 68.914 61.441l173.562-0.164 80.181-201.521-0.892-1.797-102.456-61.699c-7.122-7.922 2.997-22.511 7.304-30.64 42.761-80.709 117.157-155.076 197.858-197.858 5.014-2.657 18.646-10.375 23.403-10.117 4.623 0.248 7.016 2.835 9.653 6.248l59.285 99.021 1.797 0.892 201.521-80.181 0.006-175.265c-3.121-30.149-25.246-57.41-54.617-65.498zM631.659 429.142c57.116-1.286 114.938 2.479 172.21 0.804 8.907 2.099 11.153 15.215 3.789 20.442-1.16 0.824-5.482 2.785-6.528 2.785h-140.134l233.279 232.737c7.718 10.953-5.004 24.378-16.369 16.369l-234.601-232.345v140.13c0 1.222-3.085 5.834-4.329 6.844-7.114 5.774-16.979 1.957-18.89-6.904l0.656-173.34c1.735-4.599 6.030-7.41 10.917-7.522z" />
<glyph unicode="&#xe90e;" glyph-name="call-end" d="M887.193 222.702l-221.063 87.867c-4.177-0.582-7.91-1.763-10.011-5.692l-60.277-99.889c-84.754 42.875-155.219 114.25-199.036 198.378l100.071 60.753c3.929 2.101 5.11 5.834 5.692 10.011l-90.664 226.647-4.407 3.041-189.863 0.438c-61.549-9.011-92.681-54.923-88.252-115.626 24.97-342.373 310.063-626.374 652.178-651.244 60.945-4.431 106.555 28.289 114.96 89.848l-0.428 187.613c-1.402 4.523-4.781 6.21-8.901 7.856zM818.53-37.218c-20.65-5.686-48.955-1.076-70.36 1.727-295.366 38.676-534.657 268.272-586.845 561.099-4.363 24.47-12.548 70.992-8.255 94.253 6.158 33.366 35.257 58.62 68.906 61.435l173.546-0.164 80.173-201.501-0.892-1.797-102.446-61.693c-7.122-7.922 2.997-22.509 7.304-30.638 42.757-80.701 117.145-155.060 197.84-197.84 5.014-2.657 18.644-10.373 23.401-10.117 4.623 0.248 7.014 2.835 9.653 6.248l59.279 99.011 1.797 0.892 201.501-80.173 0.006-175.249c-3.119-30.147-25.24-57.404-54.609-65.492zM637.129 430.935l121.15 119.085 118.243-117.337c12.192-8.955 26.428 3.729 17.215 16.283l-119.147 118.243 119.657 118.667c7.596 10.591-4.657 24.092-15.871 16.801l-120.094-119.159-120.094 119.159c-4.491 2.919-11.153 2.645-15.051-1.252v0.002c-4.017-4.015-4.271-11.155-0.82-15.549l118.775-118.667-118.267-118.243c-8.079-11.005 1.915-23.345 14.306-18.032z" />
<glyph unicode="&#xe90f;" glyph-name="call-muted" d="M882.16 704.142c-1.631-0.298-3.205-0.932-4.445-2.065l-745.893-745.919c-9.845-11.336 5.008-26.168 16.329-16.329l184.71 184.736c103.606-100.423 240.631-166.534 384.472-184.13 35.141-4.299 66.051-8.511 96.878 12.698 26.456 18.2 39.666 46.112 41.247 77.876 2.679 53.809-2.123 109.826-0.012 163.867-0.254 3.611-1.12 7.548-3.849 10.111l-215.265 86.127c-4.88-0.714-7.26-3.013-10.069-6.714-19.63-25.87-34.285-61.999-53.383-89.002-0.784-1.108-1.352-2.365-2.239-3.407l-1.224-0.294c-28.359 14.793-55.319 32.762-79.759 53.385-2.501 2.111-18.778 16.147-18.53 17.571l422.95 423.064c6.392 9.065-0.962 20.42-11.918 18.426zM543.030 179.33c5.022-2.885 23.911-13.99 28.133-14.669 6.544-1.052 9.939 0.556 13.842 5.584l55.009 92.025 2.727 1.887 189.287-75.488 0.164-157.653c-1.236-21.549-8.991-40.357-25.66-54.377-24.564-20.662-49.279-17.265-79.067-13.978-140.29 15.469-277.089 79.681-377.314 178.334l103.826 104.501c27.423-24.878 56.86-47.679 89.054-66.167zM246.945 225.715c9.619-11.7 23.577-5.614 21.735 8.713-61.147 88.96-101.856 192.32-113.914 300.212-2.029 18.16-4.88 37.56 0.354 55.255 8.661 29.277 36.703 49.265 66.963 50.298l158.578-0.166 75.49-189.287-1.887-2.727-91.457-54.647c-5.78-4.371-7.994-8.383-5.742-15.651 1.386-4.469 14.553-28.253 17.68-30.71 9.217-7.236 21.541 1.31 18.64 12.118-0.976 3.637-10.813 17.283-9.403 19.52l91.853 55.253c6.718 3.999 9.021 10.509 5.226 17.565-29.057 65.15-50.612 136.173-80.317 200.733-3.893 8.459-4.639 10.523-14.795 11.262-54.233-2.329-110.849 2.961-164.8 0-53.343-2.929-94.013-44.056-92.597-98.259 2.279-87.309 36.141-194.459 76.796-271.263 10.741-20.286 27.329-50.862 41.597-68.219z" />
<glyph unicode="&#xe910;" glyph-name="camera-eptz-off" d="M150.907 695.445c-9.803 4.876-20.298-7.164-13.198-16.017l267.884-267.856 1.408-2.831h-243.392c-50.126-47.151-51.010-131.063 0.49-177.465l422.076-0.68 284.993-284.649c10.329-8.233 23.625 5.51 14.639 15.581l-734.9 733.917zM484.215 331.53l39.536-39.538c-25.698-8.867-48.459 13.922-39.536 39.538zM435.652 361.729c2.093 1.51 17.447 1.394 19.89-0.014 1.056-0.608 14.2-13.766 14.394-14.779-11.828-20.71-9.339-45.276 7.168-62.522l9.931-7.49h-50.374c-16.593 18.964-20.592 47.403-10.049 70.306 1.172 2.545 7.35 13.278 9.041 14.499zM172.082 250.562v-0.002c-35.239 38.554-35.793 99.261-0.48 137.947l254.75 0.51c2.855-0.22 6.466-3.695 7.012-6.638h-57.902c-36.253-33.228-36.319-91.178-0.454-124.737l183.163-0.442c3.417-0.308 5.904-4.109 7.954-6.638h-394.043zM412.649 276.923h-28.717c-21.431 24.206-21.605 61.557 0 85.681h28.717c-15.629-25.7-15.251-59.883 0-85.681zM608.588 388.065v0l239.483-0.428c35.051-37.816 34.571-98.541-0.454-136.217h-102.754c4.93-4.087 13.184-15.835 18.082-18.648 0.908-0.522 1.667-1.048 2.791-0.928l89.296 0.070c51.362 45.278 50.9 129.314 0.952 175.729h-269.202l19.012-18.648 2.793-0.93zM613.75 381.605c4.836-3.981 13.324-15.989 18.078-18.652 2.505-1.406 4.205-0.458 6.372-1.066 3.359-0.942 9.205-13.646 11.812-17.013l23.705-22.791c-0.016 22.583-10.483 44.39-26.958 59.523h-33.010z" />
<glyph unicode="&#xe911;" glyph-name="camera-eptz-on" d="M873.901 391.42c-2.409 3.403-13.050 16.835-16.235 17.445l-691.134-0.17c-50.328-45.85-51.090-132.727 1.701-176.601h689.433c45.198 40.489 51.318 109.788 16.235 159.326zM859.299 263.206c-1.689-2.491-7.8-11.027-10.047-11.468l-673.564-0.026c-2.647 0.508-12.478 15.185-14.312 18.434-21.497 38.082-16.623 87.067 13.558 118.921v-0.002l674.309 0.152c3.143-0.59 11.061-12.672 13.050-15.951 20.67-34.107 19.368-77.090-2.995-110.060zM647.94 382.5l-270.915 0.002c-36.553-32.31-36.243-91.689 0-124.041l270.152-0.172c37.48 30.916 37.54 92.603 0.764 124.211zM413.785 277.913h-28.533c-21.293 24.052-21.467 61.161 0 85.131h28.533c-15.531-25.534-15.153-59.499 0-85.131zM437.641 277.913c-20.879 23.889-21.089 61.335 0 85.131h49.115c-26.886-17.696-31.49-54.375-8.931-77.692l9.867-7.44h-50.050zM512.546 290.975c-16.347 0-29.599 13.252-29.599 29.599s13.252 29.601 29.599 29.601 29.601-13.252 29.601-29.599-13.254-29.601-29.601-29.601zM587.322 277.913h-49.115c25.572 16.971 31.75 51.682 11.25 75.332l-11.25 9.799h49.115c21.465-23.971 21.293-61.081 0-85.131zM639.712 277.913h-28.535c16.159 26.17 14.807 58.3 0.936 85.131h27.597c21.727-23.747 21.461-61.313 0.002-85.131z" />
<glyph unicode="&#xe912;" glyph-name="camera-ptz-off" d="M895.042-47.211l-750.254 750.254c-9.675 4.872-20.258-6.718-13.866-15.781l103.984-104.551h-24.45c-13.216 0-30.123-17.011-31.054-30.309l-0.070-463.887c-13.318-1.228-24.878-11.618-26.89-24.988l0.256-112.895c2.667-14.104 14.879-23.273 28.949-23.785l662.611 0.010c12.082 0.95 22.727 7.16 26.346 19.208 1.639 1.188 7.478-6.952 9.819-7.902 9.429-3.827 19.074 5.436 14.617 14.625zM605.963 211.656h-277.573c-3.965 0-12.944 7.882-12.944 11.984v179.776l13.404-23.511c44.102-69.126 126.093-109.54 208.345-99.351l68.771-68.898zM457.347 360.279c-37.020 13.976-67.093 44.794-81.489 81.489l81.489-81.489zM315.455 502.171l31.080-30.752c10.313-62.54 54.299-115.134 114.874-134.414 6.858-2.183 20.756-3.821 25.634-6.006 1.887-0.846 26.966-26.2 29.277-29.211 0.738-0.962 1.859-1.216 1.428-2.877-42.209-0.574-83.684 11.628-118.229 35.649-53.609 37.274-87.049 101.804-84.064 167.612zM199.432 550.592c0 4.547 7.81 10.961 12.208 11.762 12.526 2.283 30.562-1.074 43.686 0.026l39.79-39.79 0.162-298.983c1.482-17.031 17.181-31.102 34.037-32.12l297.067-0.162 100.876-100.471 1.432-2.883h-529.259v462.621zM843.31-53.019l-663.481 0.1c-3.753 0.594-7.108 4.227-7.268 8.073 2.341 33.677-3.037 71.384-0.024 104.577 0.45 4.952 3.095 8.413 8.417 8.855 1.963 0.162 4.147-0.818 6.446-0.802 187.275 1.376 374.601-0.906 561.88 0.030l102.186-101.080c2.103-7.952 2.695-19.29-8.157-19.754zM367.701 630.669c71.62 77.978 192.286 84.658 273.233 16.257 88.892-75.115 92.171-214.599 7.234-293.846 3.873-2.595 9.929-11.686 13.414-13.48 0.922-0.474 0.98-0.474 1.901 0 1.855 0.956 11.738 12.362 13.924 14.905 4.143 4.822 7.906 10.023 11.794 15.053l20.312 33.859v-110.741l20.136-19.656v273.738c0 7.534 7.392 15.023 14.859 15.823 21.207 2.271 46.36-1.629 67.993-0.088 6.086-0.826 10.837-5.564 12.808-11.161l0.198-370.858c0.772-6.572 15.441-17.309 20.156-22.511v396.464c0 1.108-4.003 9.721-4.966 11.332-5.27 8.811-16.097 15.655-26.298 16.849-15.611 1.823-57.052 1.823-72.661 0-9.671-1.13-17.732-6.794-24.542-13.318-5.856 19.136-15.891 37.352-27.441 53.587-73.349 103.102-219.975 122.048-317.235 40.349-3.337-2.803-16.855-14.435-18.298-17.243-0.474-0.922-0.474-0.98 0-1.901 1.793-3.485 10.887-9.541 13.48-13.414zM612.693 388.555l14.018-13.834c61.507 55.145 70.396 150.399 23.181 217.88-61.251 87.541-188.553 96.282-260.547 17.305-0.156-0.892 10.385-11.874 11.864-12.86 0.978-0.65 2.113-1.452 3.285-0.78 0.398 0.23 4.129 5.506 5.862 7.072 50.146 45.274 120.572 54.995 179.228 19.082 83.144-50.906 94.756-167.836 23.109-233.867z" />
<glyph unicode="&#xe913;" glyph-name="camera-ptz-on" d="M872.403 64.374c-1.092 9.145-8.389 18.068-16.801 21.551-3.717 1.54-10.101 1.094-9.989 5.35l-0.18 462.921c-3.427 14.733-15.839 26.636-31.034 28.411-15.609 1.823-57.052 1.823-72.661 0-9.673-1.13-17.734-6.794-24.542-13.318-19.996 60.073-69.166 109.008-128.252 131.113-114.024 42.655-241.654-17.039-281.178-131.111-7.44 7.374-15.529 12.52-26.322 13.456-17.593 1.526-51.478 1.522-69.052-0.050-17.163-1.536-31.26-14.829-33.128-32.070l0.070-462.112c-13.318-1.23-24.876-11.616-26.89-24.988 2.637-35.581-3.511-76.236 0.018-111.215 1.452-14.401 14.246-24.576 28.239-25.454l662.609-0.008c14.781 0.238 26.446 10.075 29.203 24.49-3.007 35.681 4.057 78.154-0.11 113.035zM512.558 694.105c109.066 0 197.482-88.416 197.482-197.482s-88.416-197.482-197.482-197.482-197.482 88.416-197.482 197.482 88.416 197.482 197.482 197.482zM709.512 403.416v-180.734c0-2.575-7.062-9.395-10.021-10.113-124.101-1.52-248.966-1.52-373.067 0-3.907 0.324-10.981 7.622-10.981 11.073v179.776l13.404-23.511c82.312-129.506 270.811-135.104 360.351-10.349l20.312 33.859zM199.432 550.592c0 6.050 9.263 11.498 14.823 12.022 21.187 1.993 45.538-1.492 67.069-0.122 8.433-1.55 14.328-8.967 14.030-17.612l-0.076-321.274c1.745-17.157 16.953-31.020 34.037-32.12l365.382-0.010c17.577 1.226 30.936 12.134 34.871 29.369l0.038 322.119c0.074 9.177 4.307 17.874 14.032 19.528 21.623-1.29 45.752 2.005 67.071 0.124 5.112-0.452 8.859-2.161 11.944-6.274 0.534-0.712 2.879-4.513 2.879-4.793v-463.581h-626.1v462.621zM172.54-53.067l-0.008 121.652 679.896 0.048 0.008-121.652-679.896-0.048zM512.548 329.117c92.519 0 167.522 75.003 167.522 167.522s-75.003 167.522-167.522 167.522-167.522-75.003-167.522-167.522 75.003-167.522 167.522-167.522zM512.548 644.115c81.447 0 147.472-66.025 147.472-147.472s-66.025-147.472-147.472-147.472-147.472 66.025-147.472 147.472 66.025 147.472 147.472 147.472zM509.123 369.858v20.136c-52.378 0.166-95.744 43.548-95.88 95.88h-20.136c0.83-24.226 7.378-46.601 21.271-66.459 21.555-30.806 56.958-49.049 94.744-49.557z" />
<glyph unicode="&#xe914;" glyph-name="casting" d="M771.143 611.233l-517.986-0.27c-45.524-4.085-88.356-31.476-109.162-72.279-4.279-8.389-12.734-23.677-0.35-29.225 14.31-6.408 17.073 11.017 21.751 19.92 17.718 33.719 53.543 55.247 91.215 58.592l512.72 0.048c53.479-4.127 99.411-45.744 103.7-100.073l0.048-334.070c-4.701-56.806-51.534-97.693-107.468-100.956-42.849-2.499-88.076 1.999-131.175-0.022-13.878-3.389-11.834-21.793 1.801-23.203 42.889 1.771 87.637-2.349 130.305-0.036 66.713 3.615 124.085 53.691 129.751 121.474l0.048 337.79c-4.797 66.119-59.863 117.435-125.199 122.31zM253.157 610.963v0 0zM170.057 371.168c-8.043 0.648-25.178 2.187-32.344 0.728l0.002-0.002c-11.099-2.259-12.222-18.504-1.358-22.333 116.949 0.23 229.274-60.711 285.891-163.529 25.374-46.082 37.218-96.254 38.078-148.945 12.16-15.301 23.341-5.586 22.883 11.722-4.547 171.716-144.119 308.74-313.152 322.359zM177.217 208.985c-9.237 1.861-28.813 5.014-37.616 3.771l-0.002-0.002c-8.177-1.154-13.558-8.839-9.797-16.759 4.281-9.013 18.13-6.224 26.294-7.2 77.294-9.241 130.137-62.74 138.179-140.034 0.82-7.872-1.272-18.192 10.821-19.030 12.038-0.832 12.772 11.191 12.442 19.962-2.947 78.274-65.054 144.137-140.32 159.292zM152.078 44.171c1.498-6.345-2.431-12.702-8.775-14.201s-12.702 2.431-14.201 8.775c-1.498 6.345 2.431 12.702 8.775 14.201s12.702-2.431 14.201-8.775z" />
<glyph unicode="&#xe915;" glyph-name="charging" d="M572.761 483.233l113.333 8.923c13.742 0.108 27.345 0.242 40.933-1.835 1.188-0.182 1.578 0.582 1.33-1.3l-348.357-531.060-32.198-39.372 108.438 433.531c0.396 2.221-5.952 1.36-7.516 1.274-35.307-1.925-70.556-6.708-105.831-8.873-5.864-0.36-28.437-2.137-32.050-0.058-0.696 0.4-7.16 7.066-7.214 7.588l95.046 305.7c1.975 5.752 5.702 10.117 11.876 11.242l224.902 16.959c12.612 2.373 23.151-6.17 17.121-18.898l-79.813-183.821zM626.104 662.839l-207.277-15.639-87.061-279.119c-0.094-1.865 0.004-1.15 1.326-1.342 2.157-0.316 5.702-0.090 8.021 0.014 35.817 1.617 71.722 7.672 107.564 8.919 11.812 0.412 23.791 0.546 35.165-2.715l-86.247-346.774 290.747 442.386c0.372 1.921-0.864 1.37-2.195 1.314-39.242-1.677-79.177-8.259-118.287-9.767-11.254-0.434-23.191-1.1-23.363 13.516l81.606 189.207z" />
<glyph unicode="&#xe916;" glyph-name="chevron-dn" d="M154.664 526.298c6.354 0.236 14.803-3.229 19.442-7.59l338.368-338.398 339.4 339.336c27.637 20.356 59.577-12.394 36.888-39.84l-356.591-356.591c-11.242-10.571-28.151-10.571-39.394 0l-356.087 356.111c-16.351 16.739-6.196 46.074 17.974 46.973h-0.002z" />
<glyph unicode="&#xe917;" glyph-name="chevron-dn-left" d="M278.053 86.053h498.098c4.065 0 13.16-4.699 16.195-7.774 15.609-15.811 5.306-43.85-17.163-44.952l-524.49-0.042c-14.691 1.266-24.142 10.721-25.408 25.408l0.042 524.49c0.992 22.423 29.077 32.838 44.952 17.163 3.075-3.037 7.774-12.13 7.774-16.195v-498.098z" />
<glyph unicode="&#xe918;" glyph-name="chevron-dn-right" d="M760.33 594.696c3.711 36.739 52.092 34.783 53.677-0.974l0.050-545.578c-1.21-15.519-9.123-26.888-25.408-28.285l-553.253 0.044c-20.574 1.446-30.64 26.212-18.25 42.203 3.683 4.753 13.32 10.523 19.2 10.523h523.984v522.067z" />
<glyph unicode="&#xe919;" glyph-name="chevron-left" d="M688.773 704.258c22.335 2.901 36.251-22.129 22.655-39.714l-343.049-343.935 341.247-341.489c18.902-21.327-2.851-51.574-28.947-39.726-123.339 120.194-243.944 243.55-366.284 364.902-7.99 8.971-8.265 23.431 0 32.38l361.551 361.551c3.433 3.201 8.167 5.426 12.826 6.030v0z" />
<glyph unicode="&#xe91a;" glyph-name="chevron-right" d="M329.495 704.22c6.842 0.892 13.166-0.988 18.612-5.174 16.335-12.562 36.551-36.818 52.092-52.096 103.816-102.056 206.298-205.682 309.467-308.482 16.683-21.799 2.379-32.648-12.17-47.151-116.34-115.99-232.167-232.493-348.449-348.539-25.234-19.638-54.617 12.36-33.675 36.371l342.163 341.333-343.967 344.026c-11.592 14.939-3.275 37.208 15.927 39.712z" />
<glyph unicode="&#xe91b;" glyph-name="chevron-up" d="M509.119 524.594c5.918 0.768 11.51-0.694 16.681-3.513 122.15-119.313 241.828-241.451 363.055-361.821 21.777-23.853-7.92-57.32-33.705-36.399l-342.667 341.821-343.563-342.719c-23.669-18.022-52.726 10.909-34.603 34.603l361.977 361.999c3.433 3.197 8.167 5.422 12.826 6.028v0z" />
<glyph unicode="&#xe91c;" glyph-name="chevron-up-left" d="M264.629 44.344c-4.009-31.912-48.885-32.914-52.726-0.95l-0.044 553.253c1.264 16.153 12.77 24.504 28.285 25.408l546.543-0.042c19.528-1.478 31.766-18.318 24.738-37.186-2.495-6.7-12.6-15.539-19.936-15.539h-526.861v-524.944z" />
<glyph unicode="&#xe91d;" glyph-name="chevron-up-right" d="M233.469 569.288c-27.967 3.465-31.48 49.409 5.768 52.72l546.537 0.050c18.060-1.697 26.882-11.352 28.283-29.245l-0.050-545.578c-3.523-39.652-53.677-32.588-53.677-0.974v523.027h-526.861z" />
<glyph unicode="&#xe91e;" glyph-name="chevron-zoom-minus" d="M405.375 704.198l32.308-0.686c167.37-14.693 286.233-168.203 257.146-334.789-8.751-50.124-31.898-96.258-63.87-135.36l11.157-10.963 35.331-1.104 217.652-217.708-64.428-66.079-218.048 217.046-1.104 35.331-10.953 12.128-2.247-0.426c-127.236-108.734-322.399-83.010-417.887 53.869-129.987 186.33-0.832 441.284 224.946 448.74zM611.463 419.077c0 108.998-88.36 197.358-197.358 197.358s-197.358-88.36-197.358-197.358 88.36-197.358 197.358-197.358 197.358 88.36 197.358 197.358zM303.941 440.808h219.565v-44.104h-219.565v44.104z" />
<glyph unicode="&#xe91f;" glyph-name="chevron-zoom-plus" d="M405.227 704.734l32.354-0.686c167.604-14.713 286.632-168.439 257.506-335.257-8.763-50.194-31.942-96.392-63.96-135.55l11.173-10.979 35.381-1.106 217.956-218.012-64.518-66.171-218.352 217.35-1.106 35.381-10.969 12.144-2.251-0.426c-127.414-108.886-322.849-83.126-418.471 53.945-130.171 186.59-0.834 441.9 225.258 449.366v0zM611.603 419.215c0 109.15-88.484 197.634-197.634 197.634s-197.634-88.484-197.634-197.634 88.484-197.634 197.634-197.634 197.634 88.482 197.634 197.634zM436.15 529.311v-88.334h87.373v-44.166h-87.373v-87.373h-44.168v87.373h-86.891l-1.44 1.44v41.287l1.44 1.44h86.891v88.334z" />
<glyph unicode="&#xe920;" glyph-name="climate" d="M571.909 429.096l0.056 211.070c-5.070 83.028-118.799 85.251-127.552 4.649l0.052-216.65c-37.598-25.28-56.726-70.362-48.129-115.298 4.681-24.464 18.374-46.405 36.011-63.552-4.998-0.41-9.377-4.225-10.171-9.361-1.731-11.212 2.773-26.312 1.841-37.934l-41.449-23.557-44.928 25.916-0.048 49.445c8.485 7.074 23.885 10.481 32.366 16.951 5.564 4.245 6.596 12.778 1.6 17.776-9.289 9.293-24.604-4.699-34.109-8.057v40.473c0 2.219-5.664 7.158-8.103 7.712-5.622 1.278-15.157-2.655-15.157-8.641v-39.546c-8.581 3.001-21.259 14.204-30.468 10.463-7.666-3.115-9.031-14.34-2.577-19.782 4.557-3.845 31.952-14.605 32.896-17.349l0.156-47.313-1.504-2.217-42.221-25.802-45.168 24.758c-1.348 2.171 0.406 4.753 0.486 7 0.306 8.645 1.941 19.678 1.538 27.765-0.708 14.128-22.031 16.613-23.853-1.733-0.272-2.745-0.254-19.030-0.952-19.996-10.085 4.143-20.306 12.794-30.067 16.915-13.97 5.894-23.171-8.461-13.62-19.204l31.598-17.261c0.944-1.274-19.62-13.218-21.267-15.473-6.722-9.199 1.651-22.105 12.93-18.504l31.91 19.83 43.894-24.918 0.006-53.055-41.971-23.261c-11.468 2.505-36.549 32.454-46.362 14.821-8.123-14.597 14.691-20.991 22.703-28.303-6.5-5.646-34.573-16.539-36.785-23.677-3.205-10.349 5.132-18.394 15.447-15.447l32.062 18.164c0.914-0.638 1.204-1.214 1.392-2.301 1.344-7.766-2.051-23.559 6.17-28.255 4.884-2.791 12.232-1.949 15.671 2.687 4.655 6.276 0.822 23.993 0.448 32.042-0.148 3.183-0.002 6.488 0.19 9.661l45.522 24.86 41.333-24.708 0.308-51.034c-1.002-1.603-29.043-13.128-33.809-16.899-5.83-4.613-5.962-14.194 0.14-18.466 10.275-7.196 23.711 6.722 33.821 9.165v-38.614c0-3.965 7.574-8.929 11.63-8.929 4.079 0 11.63 4.737 11.63 8.929v37.686c10.021-2.729 27.819-19.326 34.895-3.731 2.041 4.499 1.078 9.853-2.399 13.43-4.309 4.433-31.254 14.759-32.344 16.505l-0.168 48.511 43.51 26.582 43.82-23.279c0.166-3.795 0.35-7.716 0.19-11.522-0.282-6.736-2.373-16.851-1.927-23.199 0.636-9.083 10.289-14.092 18.046-9.671 8.587 4.894 4.808 22.359 7.11 30.578 11.039-2.941 37.61-28.709 46.943-13.916 5.488 8.699-0.36 14.244-7.246 18.73-9.003 5.866-19.19 10.375-28.537 15.671 4.824 5.174 20.979 11.722 23.489 17.906 3.947 9.725-5.166 19.272-14.871 15.795-11.131-5.88-20.851-14.889-32.282-19.752l-42.207 23.449-0.018 52.206 43.097 24.772c11.011-3.483 34.261-30.271 44.052-14.22 8.741 14.33-12.6 20.142-20.314 27.773 0.034 2.037 30.009 15.599 34.853 20.975 0.92 1.022 1.008 3.473 2.037 3.723 25.42-1.805 50.234 3.799 71.666 17.519 7.652-4.874 15.245-19.284 26.304-12.398 13.718 8.541 0.132 20.388-6.404 27.745 52.31 49.303 42.371 137.339-16.833 176.177zM329.143 79.949l-47.377 26.69 0.044 51.772 41.975 25.552h3.121l42.631-25.37 0.318-53.343-40.711-25.3zM467.714 645.71c0 1.354 2.223 8.317 2.913 10.113 11.63 30.335 54.149 33.566 71.182 6.29 1.681-2.693 5.928-10.853 5.928-13.612v-99.097h-78.627l-1.396 1.396v94.91zM449.058 215.869l-2.741-0.506-0.926 24.188c7.228-4.902 14.785-9.575 23.245-12.108h0.002l-19.58-11.574zM533.559 246.749c-91.221-26.57-157.583 92.027-85.397 155.186 4.363 3.815 15.497 9.587 18.086 12.62 5.080 5.954 1.643 10.317 1.432 16.181-1.146 31.714 0.924 63.682 0.034 95.408h80.021v-103.75c0-1.016 2.441-6.796 3.325-7.84 2.293-2.703 12.12-7.306 16.225-10.759 55.871-47.011 36.029-136.733-33.725-157.047zM691.418 216.048c-46.739 0-84.628-37.89-84.628-84.628s37.89-84.628 84.628-84.628c46.739 0 84.628 37.888 84.628 84.628 0 46.737-37.888 84.628-84.628 84.628zM691.43 70.098c-33.867 0-61.323 27.455-61.323 61.323s27.455 61.323 61.323 61.323c33.867 0 61.323-27.453 61.323-61.323 0-33.867-27.457-61.323-61.323-61.323zM585.631 37.416v0c-4.175-0.87-19.636-16.189-20.706-20.224-3.097-11.696 7.988-20.094 18.124-13.478 2.401 1.568 15.245 14.751 16.333 17.163 4.563 10.089-3.029 18.768-13.752 16.539zM804.86 35.615c-3.325 2.061-6.936 2.713-10.817 1.817-5.466-1.262-8.869-8.669-7.704-13.82 1.050-4.641 15.453-19.312 19.85-21.091 10.089-4.085 19.518 5.154 15.759 14.811-1.254 3.221-13.948 16.337-17.089 18.282zM804.862 225.747c2.883 1.787 15.711 14.909 16.655 17.774 3.021 9.173-2.445 18.046-12.558 16.287h0.002c-5.1-0.888-19.952-15.363-21.837-20.036-4.461-11.057 7.152-20.588 17.738-14.026zM550.286 142.076c-2.943 1.188-23.355 1.228-26.998 0.492h-0.002c-9.757-1.975-11.234-16.757-2.259-21.373 4.433-2.279 19.98-2.337 25.228-1.596 12.304 1.741 14.258 18.352 4.031 22.477zM703.846 275.588c0.846 4.187 0.768 19.478 0.232 24-0.732 6.18-7.196 10.565-13.28 9.557v-0.002c-12.036-1.997-10.931-19.778-9.993-29.105 1.641-16.343 20.702-16.001 23.041-4.451zM691.766-4.429v0.002c-13.098-1.176-12.010-20.346-10.973-30.055 1.641-15.345 20.734-14.953 23.051-3.507 0.848 4.187 0.77 19.478 0.234 24-0.668 5.616-6.782 10.055-12.312 9.559zM862.612 141.756c-3.783 1.512-22.341 1.693-26.678 0.812v-0.002c-10.329-2.103-11.586-16.565-2.259-21.373 4.291-2.211 20.204-2.395 25.248-1.615 11.001 1.699 14.607 17.824 3.689 22.179z" />
<glyph unicode="&#xe921;" glyph-name="conference" d="M250.228 378.856c177.904 1.036 356.227-1.863 533.877 1.458 9.831 2.457 18.1 8.735 21.133 18.654 0.914 94.988 1.41 190.572-0.25 285.499-4.087 11.882-15.635 18.93-27.953 19.416l-532.206-0.288c-11.163-2.251-21.245-8.459-24.702-19.824l-0.682-279.799c1.392-16.179 15.839-24.2 30.782-25.116zM247.427 398.791c-1.286 0-8.051 4.021-8.051 5.21v35.525h255.784c-12.666-12.054-11.043-29.633 1.895-40.737h-249.628zM511.76 414.464c-3.061 0-5.544 2.483-5.544 5.544s2.483 5.544 5.544 5.544c3.063 0 5.544-2.483 5.544-5.544 0.002-3.061-2.481-5.544-5.544-5.544zM785.992 404.004v0c0-1.19-6.768-5.21-8.051-5.21h-251.521c13.212 10.321 14.308 29.183 1.895 40.737h257.677v-35.527zM239.373 679.678l0.002 0.002 5.166 3.361c176.997 2.125 354.391 0.256 531.542 0.938 3.805 0.042 7.152-1.867 9.911-4.299v-220.257h-188.523v25.106c0 22.769-19.942 45.906-41.493 51.346-15.117 3.817-66.159 3.847-81.716 0.81-20.256-3.953-44.472-25.666-44.472-47.421v-29.841h-190.416v220.255zM383.8 116.432l-0.004 0.004-85.583 0.154-12.406 85.155 35.741-22.513c23.387 1.176 49.714-2.329 72.761-0.26 19.37 1.735 17.926 26.638 0.914 28.461-19.554 2.095-42.217-1.923-62.095 0.428l-68.687 45.942c-16.291 0.684-32.36-2.901-48.343-5.54l-0.924 1.853c-13.058-2.225-22.285-11.828-23.151-25.164 7.594-39.552 9.543-81.66 17.323-120.978 2.253-11.394 9.089-25.462 21.983-27.279h123.627v-120.786c0-0.362 2.319-5.788 2.809-6.666 9.403-16.817 35.369-12.628 39.392 6.15l0.012 145.988c-2.117 6.624-6.364 12.996-13.37 15.051zM817.914 102.080l0.006 0.002c8.039 39.418 9.709 82.186 17.399 121.914 0.446 11.87-9.055 24.282-21.051 25.438-2.333 0.226-4.585-0.624-6.92-0.342-14.757 1.785-29.359 6.016-44.366 4.557l-68.637-45.994c-19.91-1.981-42.749 1.871-62.301-0.226-17.121-1.835-17.533-26.836 0.912-28.461 23.083-2.037 49.351 1.416 72.763 0.258l35.741 21.565-12.246-83.9-84.792-0.47c-10.149-3.223-14.096-12.13-14.789-22.159-2.971-42.995 2.345-89.358 0.002-132.713-0.41-21.657 26.564-31.734 39.296-13.638 0.55 0.78 3.375 5.75 3.375 6.098v122.682h124.575c10.415 0.002 19.238 16.589 21.033 25.388zM670.906 172.378v0l-309.853 0.056c-9.247 1.58-7.232-23.417-2.787-24.686h123.156l1.42-1.42v-205.572c0-0.262 2.281-2.295 2.861-2.825 17.85 0.368 38.728-2.171 56.392-0.536 2.365 0.22 7.062 1.39 7.062 4.307v206.046h123.627c5.482 0 7.474 25.664-1.877 24.63zM317.563 68.207l0.002-0.004-123.653-0.026-27.903 159.198c-3.835 13.174-25.584 14.471-31.328 1.855-3.257-7.156-1.246-12.822-0.162-20.082 8.329-55.733 22.027-110.839 30.452-166.594 1.719-6.966 11.113-14.138 18.038-15.121 6.986-0.99 15.981 0.73 23.211 0l-25.396-84.088c-1.937-7.634 8.181-9.781 10.713-3.067l26.14 87.065 62.802 0.152 26.37-86.527c2.401-7.372 12.194-6.14 10.981 2.377l-25.404 84.092h28.893c0.416 0 4.693 1.605 5.58 1.997 20.863 9.155 12.95 38.964-9.335 38.772zM857.276 226.617l-0.004 0.004-27.745-158.404-123.617-0.014c-18.268-0.214-28.919-21.747-15.117-35.079 1.743-1.685 9.227-5.692 11.36-5.692h28.893l-24.988-83.568 1.438-7.242c1.156-0.746 8.021-0.38 8.683 2.011l26.274 88.756 62.856 0.1 26.358-86.541c1.024-5.59 9.893-6.702 10.997-0.912l-24.46 87.391h22.261c5.734 0 16.877 8.975 18.222 14.935l32.394 177.043c0.82 20.696-26.696 25.814-33.803 7.212zM788.606 359.708c-45.784-6.198-41.089-99.205 7.326-95.428 49.155 3.837 44.688 102.468-7.326 95.428zM235.103 264.279c49.121 3.833 44.798 102.484-7.326 95.428-45.65-6.18-41.129-99.209 7.326-95.428zM551.311 653.020c21.819-21.819 21.819-57.196 0-79.015s-57.196-21.819-79.015 0c-21.819 21.819-21.819 57.196 0 79.015s57.196 21.819 79.015 0z" />
<glyph unicode="&#xe922;" glyph-name="connection-digital-link" d="M710.636 541.665h17.752c15.525 0 29.139-20.809 30.263-34.991 2.537-32.038-0.062-70.852 0.006-103.71 0.298-143.239-0.338-287.296-0.006-430.853-1.448-18.29-13.992-32.264-32.14-35.031h-427.101c-19.768 1.43-33.382 17.575-34.069 36.938 0.346 143.241-0.288 286.98 0.006 429.904 0.066 32.174-2.717 71.498 0.054 102.702 1.318 14.819 14.971 35.041 31.172 35.041h16.793v144.423c2.343 13.108 10.871 17.88 23.467 18.752l352.25-0.008c7.724-0.79 15.189-3.563 19.098-10.649 0.51-0.926 2.457-4.711 2.457-5.218v-147.298zM690.484 684.646h-356.968v-75.808c16.607 1.947 27.769-9.517 26.866-25.914l81.82-0.224c9.161-2.227 16.661-10.603 16.197-20.268l1.438-1.442 102.588-0.18 2.891 0.948c0.332 10.137 6.55 18.52 16.483 20.941l81.203 0.362 1.442 1.438c-1.687 15.769 10.727 26.262 26.040 24.338v75.808zM340.232 588.732h-6.718v-105.601h6.718v105.601zM690.484 588.686h-5.758v-105.555h5.758v105.555zM439.071 562.776h-78.687v-110.354h78.687v110.354zM585.117 562.776v-110.354h79.457v110.354h-79.457zM565.737 540.705h-106.515v-114.192h106.515v114.192zM313.364 521.513h-14.873c-5.162 0-12.686-9.663-12.87-14.957 2.245-33.156-3.297-70.932-0.074-103.544 1.282-12.968 12.022-24.706 25.38-25.478l407.213 0.696c11.33 3.605 18.44 12.072 20.334 23.809-2.731 33.142 3.631 72.163-0.004 104.605-0.56 4.992-3.249 9.065-7.2 11.992-0.722 0.534-4.519 2.879-4.799 2.879h-14.394c-1.37-0.842-1.324-1.913-1.488-3.309-1.927-16.413 6.412-41.821-9.227-52.188-5.526-3.663-10.221-3.259-16.639-3.033 1.288-14.565-3.643-28.521-19.66-30.718l-79.177 0.012c0.854-12.112-5.534-23.337-17.83-25.832h-112.105c-11.55 2.403-18.49 12.576-17.011 24.252l-1.44 1.44-80.995 0.57c-14.835 3.667-17.231 15.833-16.689 29.371-6.272 1.683-11.069 0.046-17.179 3.933-2.987 1.899-9.271 9.441-9.271 12.8v42.703zM738.465 361.261l-12.92-3.873-426.135-0.006-13.874 3.879v-390.076c0-4.531 7.108-12.32 11.486-13.462 143.677-0.446 287.84-1.366 431.413 0.462 3.683 0.706 10.029 8.877 10.029 12.042v391.034zM438.801 620.622c-5.172-5.15-12.136-0.63-13.078 6.056-0.908 6.436-0.876 25.976-0.004 32.456 1.544 11.468 13.9 10.333 15.213 1.947 1.010-6.45 0.838-27.733 0.082-34.511-0.176-1.59-1.152-4.888-2.215-5.946zM572.185 620.622c-5.812-5.79-12.196-0.018-13.054 7.038-0.836 6.868-0.938 24.704-0.026 31.472 1.544 11.468 13.9 10.333 15.213 1.947 1.012-6.452 0.838-27.731 0.082-34.511-0.176-1.59-1.152-4.888-2.215-5.946zM598.103 667.182c5.916 1.276 9.199-2.265 9.879-7.944 0.754-6.292 0.822-27.415-0.25-33.382-1.831-10.197-13.982-9.251-15.149 0.712-0.806 6.886-0.838 26.758 0.11 33.52 0.462 3.295 1.887 6.336 5.41 7.096zM464.721 667.182c6.706 1.448 9.191-2.905 9.859-8.923 0.716-6.436 0.858-26.344-0.23-32.402-1.831-10.197-13.982-9.251-15.149 0.712-0.806 6.886-0.838 26.758 0.11 33.52 0.462 3.295 1.887 6.336 5.41 7.096zM498.298 667.178c4.485 1 8.363-1.568 8.953-5.992 1.5-11.246-1.194-25.816-0.074-37.45-2.851-7.856-13.432-6.31-14.388 1.877-0.794 6.81-0.944 28.949 0.074 35.467 0.446 2.857 2.555 5.456 5.434 6.098zM631.683 667.178c4.485 1 8.363-1.568 8.953-5.992 1.5-11.246-1.194-25.816-0.074-37.45-2.851-7.856-13.432-6.31-14.388 1.877-0.794 6.81-0.944 28.949 0.074 35.467 0.446 2.857 2.555 5.456 5.434 6.098zM397.536 667.188c5.118 1.54 9.299-1.951 9.891-6.992 0.8-6.806 0.934-28.937-0.078-35.469-1.254-8.093-13.286-8.465-14.358 0.882-0.702 6.114-0.998 31.008 0.042 36.465 0.314 1.649 2.935 4.643 4.505 5.114zM530.918 667.188c5.118 1.54 9.299-1.951 9.891-6.992 0.8-6.806 0.934-28.937-0.078-35.469-1.254-8.093-13.286-8.465-14.358 0.882-0.702 6.114-0.998 31.008 0.042 36.465 0.314 1.649 2.935 4.643 4.505 5.114z" />
<glyph unicode="&#xe923;" glyph-name="connection-hdmi" d="M864.32 87.809c0.968 122.908 1.272 246.117 1.006 369.163 0.778 18.65-23.265 46.23-41.623 46.23h-20.562l-1.45 3.223c0.142 41.463-0.008 82.924 0.010 124.387 0.006 16.953 1.951 36.297 0.040 53.237-1.22 10.825-11.686 18.302-21.933 19.188-12.56 1.086-27.345-0.33-40.259-0.072-162.705 3.247-325.932-0.436-488.789 1.006-11.031-0.052-27.537-8.587-27.537-21.061v-179.91h-21.029c-18.302 0-42.375-27.723-41.577-46.278l-0.984-471.995c2.153-26.584 22.429-46.405 49.059-48.139l607.57 0.008c25.662 1.891 46.196 21.373 48.133 47.197 2.443 32.572-0.338 70.532-0.074 103.816zM782.070 426.045c0.030-2.885 0.982-5.432 1.024-8.321 0.074-5.188 0.45-21.831-2.877-25.25-3.727-3.829-25.784-8.963-33.31-13.422-6.324-3.747-9.497-8.761-14.823-13.214-7.64-6.386-16.971-11.378-26.608-14.046v213.085c13.186 3.803 27.247 9.877 37.824 18.72 3.443 2.881 6.422 7.072 9.831 9.797 8.137 6.502 19.32 8.193 28.979 11.668 0.502-59.651-0.634-119.361-0.040-179.018zM242.846 680.305c0.564 3.079 5.278 3.689 7.942 4.207 166.506-2.257 333.654 3.435 499.976-0.976 8.195-0.216 21.777 1.362 29.011 0.040 1.046-0.192 1.747-0.476 2.337-1.402v-52.34c-0.064-0.428-0.96-2.599-1.248-2.963-2.479-3.121-18.444-7.036-23.283-8.955-22.571-8.953-35.395-32.498-62.934-36.135l-359.782-0.118c-15.803 2.195-30.69 9.685-42.927 19.692-4.235 3.465-6.844 7.452-11.784 10.647-7.010 4.533-34.367 12.444-36.437 15.901-0.908 1.518-0.772 2.153-0.928 3.745-1.496 15.309 1.23 33.068 0.056 48.657zM685.848 562.078v-214.959h-342.997v214.959h342.997zM323.227 563.95v-213.089c-10.509 2.349-21.169 8.147-29.413 14.981-6.194 5.134-9.533 10.457-17.279 14.497-6.314 3.293-29.647 9.635-32.446 12.866-0.36 0.418-1.24 1.727-1.24 2.045v209.818c9.349-2.787 22.947-5.686 30.371-12.154 1.33-1.158 1.861-3.097 3.235-4.241 13.714-11.418 29.059-20.813 46.771-24.724v0zM180.474 457.629c1.42 13.222 15.933 26.878 29.199 26.878l13.552 0.002v-92.059c0-0.466 2.159-6.754 2.613-7.668 7.596-15.259 33.106-15.069 45.496-24.598 8.015-6.166 13.004-12.834 22.635-18.488 10.073-5.912 18.906-7.238 28.529-11.426 1.244-0.54 0.832-2.377 3.033-2.797 2.625-0.5 6.398 0.27 9.363 0.006 3.959-0.352 6.856-2.925 9.297 0.1l341.153-0.020 0.99-2.883c18.974 5.48 39.176 11.254 55.109 23.399 5.13 3.911 10.321 10.651 15.127 13.846 13.496 8.969 38.954 7.198 43.958 27.072 6.75 26.802-2.239 64.046 1.17 92.291 0.12 1.004-0.036 2.151 0.92 2.817 19.838 2.953 38.9-5.384 42.971-26.308l-0.022-116.646c-1.847-12.89-11.456-23.209-23.965-26.504-202.561-2.743-405.519-0.346-608.23-1.206-17.88 0.712-31.736 12.134-33.174 30.381-2.873 36.485 2.019 76.926 0.276 113.812zM844.722-15.965c-1.246-12.558-10.437-22.683-22.231-26.366-204.362-2.845-409.234-0.364-613.788-1.246-16.215 1.396-27.873 13.306-29.441 29.441l0.972 318.261c5.172-2.211 9.201-5.454 14.745-7.208 5.716-1.807 11.574-2.209 17.455-3.109l600.098-0.006c6.216 0.708 12.394 1.28 18.382 3.115 5.574 1.707 9.663 4.781 14.745 7.208l0.002-0.002 0.048-207.987c-4.399-35.989 2.547-76.48-0.988-112.101zM552.173 415.786c19.596 0.956 44.006-2.779 63.138-0.466 2.197 0.266 5.154 1.633 6.668 3.145h0.004c1.51 1.512 2.881 4.469 3.145 6.668 1.374 11.374 1.098 39.786 0.018 51.472-0.6 6.496-5.372 9.997-11.724 10.707-13.21 1.482-42.603 1.182-56.11 0.030-7.582-0.646-12.606-3.703-13.522-11.712-1.268-11.079-1.040-36.381-0.038-47.703 0.526-5.942 2.641-10.013 8.421-12.14zM563.416 467.684h42.057v-32.71h-42.057v32.71zM399.829 426.995c0.672-7.174 4.433-11.065 11.682-11.682 18.828-1.601 39.862 1.282 58.938 0.014 6.446 1.002 10.161 5.336 10.773 11.656 1.080 11.137 1.208 37.676-0.046 48.647-0.83 7.254-5.538 10.887-12.616 11.684-18.12 2.039-40.135-1.348-58.666-0.22l0.002 0.002c-4.974-1.296-8.929-4.439-9.971-9.657 1.040-16.207-1.594-34.501-0.096-50.444zM419.487 467.684h42.057v-32.71h-42.057v32.71zM367.151 654.603v-0.002h0.012zM347.535 622.825c0.536-3.875-1.406-9.179 1.402-12.15h18.224v12.15h24.298v-12.15h19.628v12.15h23.365c0.536-3.875-1.406-9.179 1.402-12.15h18.224v12.15h24.298v-12.15h18.224c2.807 2.971 0.864 8.273 1.402 12.15h23.365v-12.15h19.628v12.15h24.298v-12.15h18.224c2.807 2.971 0.864 8.273 1.402 12.15h23.365v-12.15h19.628v12.15h24.298v-12.15h18.224c2.807 2.971 0.864 8.273 1.402 12.15h21.963c3.075 5.294 0.644 13.432 1.402 19.628h-23.365v12.15h-19.628c-0.536-3.875 1.406-9.179-1.402-12.15h-22.897v12.15h-19.628v-12.15h-23.365v12.15h-19.628c-0.536-3.875 1.406-9.179-1.402-12.15h-22.897v12.15h-19.628v-12.15h-23.365v12.15h-19.628l-0.876-11.742h-22.549l-0.876 11.742h-19.628v-12.15h-23.365v12.15h-19.628v-12.15h-22.897c-2.917 1.542-0.568 11.304-1.4 12.148h-19.616v-12.15h-16.823v-18.224l1.402-1.402h15.419z" />
<glyph unicode="&#xe924;" glyph-name="connection-lightning" d="M747.672 432.701c-1.603 32.72-13.34 62.229-40.967 81.025l-0.172 126.516c-2.457 34.183-29.093 60.933-63.104 64.038l-262.722-0.050c-34.379-3.881-59.723-30.504-62.175-64.968l0.008-125.071c-23.425-16.607-38.004-43.398-40.255-72.139l0.054-419.785c5.734-47.033 43.79-82.672 91.098-85.593 98.679 0.86 197.608-1.542 296.139 1.228 45.256 6.826 78.374 45.764 81.161 90.858 2.137 34.577-2.467 71.024 0.94 105.635-3.715 98.417 4.793 200.289-0.004 298.307zM338.172 639.256c2.009 23.035 19.014 41.483 41.847 45.096v0.002l262.474 0.292c23.679-2.299 42.743-21.491 44.416-45.334 4.415-62.934-3.381-131.013-0.056-194.483-2.737-24.026-21.119-43.482-45.292-46.326h-258.097c-24.302 3.221-43.009 22.933-45.292 47.259v193.494zM318.524 487.354v0l0.002-46.276c0-26.458 27.515-56.214 53.253-60.801 90.296-3.201 181.155-0.418 271.659-1.414 29.171-0.254 63.060 32.27 63.060 61.279v48.147c41.929-43.838 16.713-117.635-42.775-127.84-100.271-1.939-201.211-1.979-301.468 0.020-59.399 9.409-86.137 83.49-43.732 126.884zM727.103 28.759c-2.609-39.006-33.532-69.81-72.447-72.459h-284.291c-29.131 1.773-55.317 19.54-66.665 46.453-1.482 3.515-5.742 15.429-5.742 18.564v355.721c18.902-23.019 44.352-35.819 74.277-37.44l283.303 0.054c20.576 1.709 40.569 8.865 56.582 21.947 5.904 4.822 10.255 10.479 15.871 15.437-0.506-80.859 0.688-161.775 0.054-242.644-0.264-33.58 1.26-72.699-0.942-105.633zM401.223 531.252c77.502 0.832 155.245-1.494 232.599 1.198 17.832 4.221 31.048 19.128 32.51 37.606 1.164 14.689 1.424 44.318-0.294 58.67-2.541 21.227-21.295 36.095-42.235 36.293l-225.068-0.32c-21.357-0.966-38.092-17.171-39.996-38.534-1.206-13.532-1.548-53.425 1.907-65.374 5.244-18.148 22.117-28.737 40.575-29.539zM378.368 625.237c1.086 10.819 8.823 18.26 19.396 19.87l-0.002-0.002 226.039 0.282c10.701 0.028 21.297-7.44 22.783-18.352 1.256-9.211 1.416-50.864-0.332-59.335-1.983-9.615-11.224-16.011-20.63-16.765l-223.47-0.050c-11.306-0.068-21.895 6.946-23.553 18.516-1.681 11.726-1.452 43.708-0.232 55.837zM454.168 567.371c1.368-9.813 13.652-10.047 14.871 0.85 1.364 12.194 1.382 43.926 0.026 56.112-0.174 1.548-1.124 4.765-2.157 5.794h0.002c-4.699 4.679-13.070 0.754-12.85-5.794 1.741-17.736-2.291-39.76 0.108-56.962zM570.962 567.263c1.404 12.096 1.358 44.914 0.004 57.068-0.174 1.55-1.124 4.763-2.157 5.794h0.002c-5.492 5.47-12.046 0.114-12.826-6.752-1.274-11.222-1.398-44.072 0.082-55.075 1.52-11.3 13.818-10.323 14.895-1.036zM420.481 566.403c0.532-6.204 9.153-8.449 12.754-3.991 1.164 1.444 1.108 3.103 1.254 4.832 1.621 19.106-1.264 40.491-0.060 59.849-2.567 7.242-12.744 6.742-13.944-0.968-2.725-17.471 1.871-41.535-0.004-59.723zM522.283 568.176c0.986-10.683 12.832-10.225 14.010-2.701-1.324 19.14 1.955 41.027 0.114 59.829-0.416 4.255-3.185 7.376-7.752 6.786-3.251-0.42-5.848-2.649-6.274-5.964 1.208-18.63-1.793-39.608-0.098-57.95zM502.641 566.401c-1.51 18.558 2.201 40.753 0.074 58.864-0.542 4.629-3.867 7.828-8.683 6.832h-0.004c-2.087-0.43-4.932-2.825-5.336-5.004l0.466-63.060c4.113-6.15 11.856-4.992 13.484 2.369zM590.523 566.301c1.554-7.748 11.252-8.475 14.052-0.866-1.596 18.874 2.203 41.409 0.040 59.831-0.546 4.641-3.859 7.81-8.681 6.828l0.002 0.002c-3.321-0.676-5.020-3.691-5.384-6.828-2.113-18.216 1.659-40.315-0.028-58.968z" />
<glyph unicode="&#xe925;" glyph-name="connection-sources" d="M894.78 107.544c0.968 94.119 1.274 188.523 1.006 282.778 0.446 14.625-18.846 36.83-33.164 36.83h-14.465l-0.016 131.111c-0.63 9.609-5.832 18.544-15.797 20.6-12.806 2.639-38.386 0.142-52.823 0.374-115.502 1.861-231.61 1.596-347.182-0.012-7.706-0.11-12.384 1.19-19.956-3.285-3.749-2.213-9.401-9.617-9.401-13.93v-23.799h-0.002l-4.645 5.154c-1.036 18.606 1.3 38.504 0.018 56.948-1.627 23.409-18.068 44.26-42.469 46.192-51.554 4.081-108.44-3.117-160.55-0.040-20.18-2.561-38.614-20.066-40.597-40.597-1.939-20.082 1.558-42.919-0.16-63.302-38.084-27.975-19.27-76.112-25.092-115.834 3.391-59.605-4.361-123.953 0.008-183.003 1.781-24.070 17.325-45.854 39.924-54.339 2.525-0.948 11.74-3.957 13.778-3.957h171.258v-152.592c0-19.842 17.187-38.688 36.872-40.589l466.666-0.040c18.43 1.6 35.265 17.355 36.864 35.933 2.105 24.492-0.334 54.197-0.076 79.399zM422.582 557.346c0.044 1.128 0.61 1.655 1.47 2.263 2.627 1.851 26.414 1.038 31.7 1.040 112.553 0.046 226.079 1.402 338.702-1.010 11.352-0.244 22.759 0.266 34.103 0.030h0.002c-3.265-7.922 3.473-33.879-1.873-39.648-2.309-2.493-17.541-5.754-22.429-8.369-13.838-7.396-21.791-22.611-41.491-24.772l-274.286 0.104c-20.318 2.351-28.111 17.72-43.019 25.112-4.495 2.229-20.776 6.49-22.191 9.541-2.955 6.382 0.788 27.577-0.688 35.709zM828.601 385.576c-0.022-2.871-1-5.44-1.022-8.309-0.086-11.584 2.667-23.399-0.174-34.823-7.32-3.711-16.193-4.97-23.421-8.783-10.397-5.486-16.743-17.816-29.561-20.37v156.789l0.002 0.004c6.674 2.027 13.904 4.984 19.884 8.581 11.756 7.072 18.87 19.298 34.241 20.348-0.244-37.798 0.33-75.63 0.050-113.437zM754.828 467.282v-158.658h-255.72v158.658h255.72zM479.512 469.145v-156.789c-12.642 1.741-19.95 13.384-29.583 19.414-8.435 5.282-18.348 6.572-26.89 11.374l-0.454 155.863c0.968 1.020 15.337-4.98 17.443-6.346 3.597-2.331 5.914-5.92 9.177-8.555 8.701-7.026 19.534-12.030 30.303-14.959l0.004-0.002zM195.551 626.648c0 0 160.196 0.12 160.196 0.12 30.041-6.078 29.939-47.571 0.026-53.945h-159.43c-28.937 6.52-29.873 46.819-0.792 53.825zM378.716 561.543v-62.996c0-10.831-13.444-24.816-24.692-24.77l-157.681 0.12c-8.017 0.322-22.013 13.428-22.013 20.917v65.795c7.11-3.309 13.852-6.816 21.897-7.5 52.034 2.919 108.102-3.765 159.664-0.006 8.373 0.61 15.911 4.017 22.825 8.439zM150.719 503.491l4.011 8.589v-19.132c0-16.113 22.709-37.666 38.97-38.492l163.119-0.272c20.268 1.27 41.497 23.163 41.497 43.43v13.532l-0.002 0.002c1.643-0.916 2.603-4.958 3.063-6.736 7.61-29.359-12.608-52.907-41.757-54.899-53.583-3.659-111.257 2.857-165.272-0.006-29.079 0.11-50.106 25.544-43.628 53.983zM355.505 390.164c-0.744-61.689 0.988-123.589-1.054-185.136h-170.323c-15.247 0-34.807 22.627-34.883 37.912 0.108 67.611-0.942 135.396 0.824 202.869l17.742-10.713c7.286-3.135 15.065-4.059 22.859-5.14 55.517 2.409 113.762-3.235 168.959-0.054 16.377 0.944 30.968 6.092 43.352 16.845v-19.6h-14.467c-14.072 0.002-33.869-22.501-33.010-36.982zM875.244 29.083c-1.066-8.751-10.249-16.887-19.116-17.281h-462.050c-13.708 1.745-19.162 10.695-20.070 23.795-2.067 29.767 0.872 60.805 1.020 90.526 0.238 47.761-0.274 95.548-0.038 143.297 5.83-2.569 11.632-5.262 18.16-5.628l463.917-0.008c6.7 0.426 13.254 2.391 19.080 5.642v0l0.054-153.568c-4.227-27.367 2.323-59.871-0.958-86.775zM876.196 304.385c-0.866-11.568-7.698-19.032-19.166-20.963l-464.557 0.228c-9.649 2.385-15.975 9.123-17.385 19.014 1.781 27.15-2.745 58.118-0.096 84.815 1.488 14.979 13.672 22.169 27.989 20.074v-66.729c0-0.794 2.151-6.342 2.769-7.496 6.292-11.724 23.407-11.764 33.344-17.988 3.655-2.289 5.93-6.028 9.173-8.559 10.395-8.117 18.91-9.779 29.701-15.135 1.234-0.614 1.33-2.403 2.205-2.631 2.367-0.614 7.080 0.272 10.055-0.002 3.837-0.354 7.654-3.185 10.217 0.096l253.877-0.018 0.51-2.863c16.507 3.959 34.599 9.715 48.033 20.562 2.981 2.409 5.41 6.108 8.583 8.217 12.204 8.109 30.796 5.208 35.339 23.457 2.931 11.78 0.296 21.869 0.396 33.114 0.108 12.254 1.859 24.586 0.97 36.916 13.050 0.67 24.47-3.893 27.781-17.493-1.198-28.133 2.347-58.768 0.262-86.615zM660.999 355.255c9.899-0.848 30.434-1.012 40.167 0.032 7.836 0.84 11.956 5.822 12.634 13.496 0.61 6.882 0.824 33.635-1.26 38.948-1.717 4.389-5.878 6.766-10.443 7.288-8.283 0.946-37.82 1.182-45.514-0.218v0.002c-5.796-1.054-9.175-5.95-9.935-11.53-1.018-7.47-0.906-27.731-0.084-35.387 0.922-8.615 6.308-11.934 14.433-12.63zM666.166 395.416h27.997v-20.532h-26.598l-1.4 1.4v19.132zM546.195 356.179c6.526-1.851 37.164-1.757 44.846-0.892 4.89 0.55 10.703 3.389 12.17 8.361 1.24 4.197 1.114 35.145 0.448 40.659-0.778 6.452-5.528 10.055-11.684 10.713-8.827 0.946-36.239 1.174-44.576-0.228v0.004c-4.846-0.816-9.189-4.633-9.965-9.635-1.088-7.038-0.964-31.848-0.084-39.162 0.59-4.904 4.159-8.491 8.845-9.821zM556.974 395.416h27.066v-20.532h-27.066v20.532zM498.184 506.478h18.198l1.254 1.544 0.146 5.922h13.066v-7.466h19.6v7.466h13.066l0.146-5.922 1.254-1.544h18.198v7.466h14v-7.466h18.198l1.254 1.544 0.146 5.922h13.066v-7.466h19.6v7.466h13.066l0.146-5.922 1.254-1.544h18.198v7.466h14v-7.466h19.6v7.466h13.066v-7.466h19.6v7.466h15.865v19.6h-15.865v6.534h-19.6v-6.534h-13.066v6.534h-19.6v-6.534h-14v6.534h-19.6v-6.534h-13.066v6.534h-19.6v-6.534h-13.066v6.534h-19.6v-6.534h-13.998v6.534h-19.6v-6.534h-13.066v6.534h-19.6v-6.534h-13.066v6.534h-19.592l0.004-6.538c-0.78-0.786-9.753 1.466-11.204-1.396v-18.198l11.204 0.004-0.006-7.472zM205.548 593.227h141.020c7.708 1.004 7.852 11.92 0 13.16l-142.643-0.244c-5.894-2.847-5.188-12.042 1.623-12.916z" />
<glyph unicode="&#xe926;" glyph-name="connection-usb" d="M521.417 584.175v-350.648l189.897 74.737v86.017h-22.091c-0.372 0-6.278 1.955-7.068 2.335-5.402 2.605-10.165 9.329-11.021 15.303-2.899 20.23 1.685 45.738-0.282 66.539 1.544 12.398 9.017 18.366 21.149 19.274 20.871 1.56 43.738-1.18 64.826-0.122 9.361-1.697 16.649-8.531 17.511-18.214 1.911-21.487-1.438-45.846-0.118-67.643-0.54-8.185-10.217-17.473-18.25-17.473h-24.912v-95.418c0-0.308-2.303-4.059-2.887-4.633l-206.623-81.513 0.004-89.988c80.195-9.313 114.056-109.138 51.588-163.251-44.838-38.84-114.556-26.278-143.067 25.236-32.89 59.427 6.080 129.252 71.48 138.013l0.144 26.468-202.051 120.606c-3.579 2.091-6.986 4.657-6.706 9.275l0.102 117.449c-34.665 7.522-53.911 45.876-34.999 77.35 18.818 31.316 65.496 33.725 86.487 3.443 22.079-31.854 4.215-71.548-31.846-80.835l0.196-112.043 188.803-112.017v411.751h-63.458c-1.078 0-6.814 3.295-7.896 4.325-5.258 5-6.352 14.148-2.775 20.45l72.681 90.894c7.27 6.476 16.991 6.114 24-0.516l73.197-90.378c3.575-6.302 2.481-15.449-2.775-20.45-1.082-1.030-6.82-4.325-7.896-4.325h-65.344zM575.94 603.915l-63.588 77.954-63.322-77.954h126.91zM334.342 447.462c0 17.614-14.28 31.89-31.89 31.89-17.612 0-31.89-14.28-31.89-31.89 0-17.612 14.28-31.89 31.89-31.89 17.612-0.002 31.89 14.278 31.89 31.89zM690.632 477.945v-63.924h63.924v63.924h-63.924zM585.467 29.765c0 40.649-32.954 73.601-73.601 73.601s-73.601-32.954-73.601-73.601c0-40.647 32.954-73.601 73.601-73.601s73.601 32.954 73.601 73.601z" />
<glyph unicode="&#xe927;" glyph-name="connection-usb-a" d="M745.557 488.553c-4.259 17.988-20.907 28.041-39.040 25.948v0.002l0.008 174.398c-1.252 9.101-7.182 14.645-16.329 15.463h-355.401c-10.237-0.914-15.501-7.412-16.359-17.303l0.040-172.558c-18.914 2.195-37.606-9.623-39.312-29.417v-519.028c1.969-16.581 14.841-28.157 31.324-29.455h404.014c14.821 1.166 27.138 10.751 30.868 25.236 2.383 175.283 2.015 351.394 0.186 526.713zM338.106 661.311h348.779v-31.792h-348.779v31.792zM686.885 609.883v-208.519h-348.779v208.519h348.779zM727.093 347.13v-378.234c0-4.297-6.068-11.089-10.259-12.182l-404.48-0.478c-3.735-1.202-13.52 5.984-13.52 8.921v381.973l11.654-2.839 403.088-0.008 13.516 2.847zM727.077 379.403c-0.65-7.224-3.259-12.45-10.441-14.803l-407.567-0.224c-5.122 1.176-8.963 5.328-10.175 10.399l-0.086 109.366c1.891 9.953 10.867 11.658 19.66 10.729v0-98.649c0-3.927 7.446-12.79 11.956-13.29 118.751-2.819 238.018-0.364 356.96-1.236 6.464-1.060 19.134 7.132 19.134 13.592v99.585c11.684 1.116 19.31-2.035 20.562-14.505-2.125-32.574 2.893-68.83-0.004-100.962zM552.653 470.511c13.55-1.312 42.599-1.266 56.188 0.012 7.178 0.672 11.069 4.435 11.688 11.688 0.956 11.224 1.3 36.878-0.014 47.745-0.688 5.702-5.15 10.077-10.753 10.753-10.443 1.26-48.773 1.426-58.706-0.246h-0.002c-5.672-0.954-9.195-4.998-9.961-10.611-1.284-9.431-1.256-39.010-0.104-48.561 0.772-6.4 5.544-10.187 11.662-10.781zM560.649 521.049h40.209v-30.856h-40.209v30.856zM412.445 470.559c12.816-1.466 44.072-1.308 57.084-0.048 7.516 0.728 10.891 5.394 11.628 12.684 1.096 10.807 1.014 33.072 0.050 43.974-0.686 7.76-4.743 12.814-12.626 13.556-18.212 1.711-39.286-1.17-57.796-0.25-4.477-1.633-8.531-4.641-9.117-9.583-1.232-10.375-1.23-40.155 0-50.534 0.642-5.388 5.588-9.207 10.777-9.799zM421.324 521.049h40.209v-30.856h-40.209v30.856z" />
<glyph unicode="&#xe928;" glyph-name="connection-usb-c" d="M753.235 447.264c-1.098 8.343-1.48 16.533-3.255 24.804-5.094 23.745-19.612 44.002-38.646 58.618-1.951 33.689 1.989 69.276-0.136 102.742-2.343 36.882-28.933 66.667-66.093 70.452l-268.020-0.156c-37.558-4.269-62.882-34.259-65.266-71.282-2.133-33.168 1.721-68.377-0.184-101.758-23.001-17.503-38.074-43.26-40.855-72.309l-0.158-432.935c5.272-49.996 44.858-86.547 94.92-89.322l292.814 0.006c50.862 3.199 90.746 43.075 93.993 93.993 2.059 32.286-0.352 68.291-0.078 101.082 0.874 105.209 1.38 210.72 0.964 316.065zM331.448 580.547l15.973-11.614c8.775-5.178 18.39-8.297 28.465-9.881l269.378-0.056c17.706 1.586 33.777 10.179 46.252 22.489v-122.048c0-21.495-24.016-46.314-45.474-48.051l-266.473-0.158c-24.86 1.14-48.123 26.332-48.123 51.012v118.307zM377.068 684.098l0.002 0.002h268.826c60.121-10.537 60.039-94.4 0.162-105.323l-269.948 0.14c-59.096 11.71-58.576 94.652 0.958 105.181zM311.797 503.859c0.72-16.959-1.42-34.901 1.2-51.652 4.976-31.824 31.746-57.044 63.776-60.609h269.418c31.682 1.877 64.966 34.899 64.966 66.903v45.354c45.796-46.398 14.863-126.157-49.223-132.681l-297.331-0.164c-66.091 4.265-98.941 84.969-52.805 132.848zM732.705 30.119c-2.683-40.145-35.259-72.001-75.28-74.359h-292.82c-30.095 1.857-57.436 21.139-68.862 48.977-1.366 3.323-5.442 15.045-5.442 17.938v367.083c17.908-21.413 42.441-35.695 70.622-38.332l299.31-0.056c29.597 2.009 54.951 16.717 73.363 39.326-0.51-84.012 0.694-168.073 0.054-252.093-0.264-34.491 1.32-74.659-0.944-108.484zM393.641 619.828l236.64-0.022c13.7 1.649 13.458 21.753-0.958 23.401l-236.392-0.222c-14.084-2.367-13.532-21.913 0.71-23.157z" />
<glyph unicode="&#xe929;" glyph-name="demo" d="M380.801 329.307h33.967c11.68 0 28.361-9.247 36.305-17.668 17.561-18.614 33.785-41.391 50.728-60.945 1.422-1.641 8.917-10.489 9.875-10.657 11.316 8.883 20.786 21.245 32.056 30.099 32.322 25.39 83.256-5.946 65.526-45.052-4.95-10.915-40.327-42.785-51.154-53.071-23.639-22.455-47.525-42.771-80.027-18.562l-14.451 16.723v-76.774c0-22.595-28.907-45.348-50.68-45.17-41.765 2.133-86.115-2.709-127.57-0.008-23.051 1.502-51.602 20.977-51.602 46.108v50.718c-20.478-24.926-28.333-64.056-68.383-60.473-15.939 1.426-31.906 13.832-35.567 29.575-3.363 14.467 0.69 21.713 7.712 33.609 33.384 56.554 73.755 111.089 108.342 167.11 20.066 17.832 49.491 13.986 74.435 14.441l-20.953 15.791c-5.46 6.464-9.395 13.574-10.421 22.149-1.669 13.95-1.52 44.162-0.244 58.352 5.086 56.676 117.491 55.541 122.812 1.867 1.364-13.756 1.582-48.709-0.23-62.099-2.485-18.36-18.014-25.55-30.468-36.069l-0.006 0.006zM340.582 444.439c-9.567-1.146-28.429-9.405-28.693-20.71-0.040-1.775 0.956-3.491 0.892-4.723-0.724-14.020-2.605-35.589-0.76-49.137 0.236-1.739 1.032-4.015 1.917-5.526 2.899-4.95 25.622-20.576 31.45-21.591 12.562-2.187 24.364 7.198 33.843 14.647 3.819 3.001 6.81 5.128 8.581 10.031l0.374 58.132c-6.908 17.858-30.852 20.881-47.605 18.876v0zM440.36 233.457l53.951-62.836c10.157-8.247 23.393-3.679 32.604 3.733 20.158 16.223 38.566 40.699 59.002 57.32 13.050 17.872-14.659 31.96-28.221 19.848l-47.877-45.914-77.84 92.517c-4.996 4.675-15.941 7.454-22.753 7.958-39.538-2.503-82.896 3.197-121.98-0.006-6.29-0.514-19.138-2.903-23.715-6.994l-110.923-171.968c-4.285-18.834 22.179-25.55 33.168-12.7l71.26 109.74v-127.954c0-14.39 17.6-23.825 30.203-24.702 40.615-2.829 84.592 2.107 125.557 0.158 10.715 0.142 27.567 12.388 27.567 23.617v138.191l-0.002-0.006zM644.157 212.985v23.265h172.624c24.376 0 54.691 24.446 56.284 49.802v233.545c-3.397 28.477-28.879 47.257-56.25 49.836l-401.103-0.050c-24.45-0.538-56.314-24.976-56.314-50.702v-34.897h-23.263v35.829c0 37.484 41.845 71.716 77.716 73.039l403.898 0.050c39.212-2.909 75.001-31.678 78.631-72.121v-234.581c-3.887-42.509-40.353-70.432-81.423-73.051l-170.801 0.036z" />
<glyph unicode="&#xe92a;" glyph-name="direction-dn" d="M512.934-70.528l-18.136 35.307-316.503 685.102c-8.899 25.004 15.899 49.91 40.743 47.139l293.454-97.755c82.292 25.752 163.621 55.467 245.579 82.566 14.601 4.826 43.428 16.991 57.584 15.051 19.584-2.683 37.96-24.342 32.056-44.376-111.651-240.973-220.981-483.085-334.777-723.034v0zM512.934-18.436l312.514 677.7c1.242 7.384-8.167 15.057-15.033 15.075l-292.541-97.755c-10.741-1.274-17.822 2.013-27.565 5.138-92.017 29.509-182.571 63.95-274.87 92.577-7.658 0.356-18.236-8.333-15.515-16.509l301.272-652.8 11.738-23.427z" />
<glyph unicode="&#xe92b;" glyph-name="direction-dn-left" d="M596.006 404.006l284.959-142.587c21.189-14.116 20.186-44.162-0.92-57.744l-735.728-266.369c-8.183-3.029-16.793 4.299-15.589 12.756l264.409 733.077c11.222 26.074 45.596 28.851 61.023 4.709l141.846-283.841zM869.928 240.611l-290.493 146.356-147.51 291.669c-4.914 3.795-11.91 3.229-15.751-1.787l-255.868-708.543 709.068 256.274c4.455 4.495 5.208 11.418 0.554 16.031z" />
<glyph unicode="&#xe92c;" glyph-name="direction-dn-right" d="M594.618 704.126c13.952 1.913 26.824-3.539 34.491-15.283l267.041-738.047c1.971-8.653-6.238-16.107-14.691-13.74l-732.879 264.743c-25.892 12.202-26.58 47.711-1.653 61.267l282.686 141.682 141.81 283.487c4.385 7.98 14.124 14.643 23.199 15.887v0.004zM864.72-31.756l-254.512 706.351c-4.117 8.603-14.619 9.015-19.27 0.636l-144.041-286.84-4.649-3.729-283.587-141.706c-7.158-4.149-9.451-12.242-3.039-18.294l709.098-256.418z" />
<glyph unicode="&#xe92d;" glyph-name="direction-left" d="M859.793 663.063c21.505 1.5 39.584-17.481 36.227-39.034l-102.124-303.543 101.948-301.858c3.819-24.138-15.187-43.097-39.13-40.059-239.739 107.6-477.449 220.031-716.544 329.193-12.156 3.783-16.183 16.027-4.675 23.611l709.898 327.466c4.641 1.915 9.313 3.871 14.4 4.225v0zM168.711 320.032l690.074-317.985c7.542-1.58 13.374 1.839 14.256 9.589l-103.39 308.847 102.926 305.581c2.539 7.788-4.613 14.036-11.894 13.838l-691.972-319.87z" />
<glyph unicode="&#xe92e;" glyph-name="direction-right" d="M160.082 663.111c6.418 0.604 11.676-1.028 17.591-3.295l713.995-330.009c6.472-4.92 6.352-14.571-0.638-18.936-240.897-110.751-481.112-223.798-722.84-332.328-22.895-3.499-42.739 16.191-39.118 39.118l101.96 302.825-101.17 299.892c-5.562 20.64 9.171 40.753 30.221 42.733zM856.294 320.032l-2.137 2.037-689.926 317.869c-6.020 0.292-12.18-4.249-12.354-10.567l103.402-308.885-103.42-308.905c1.418-7.672 6.414-11.226 14.282-9.573l690.154 318.025z" />
<glyph unicode="&#xe92f;" glyph-name="direction-up" d="M509.911 704.084c7.188 1.312 10.817-1.911 14.094-7.798l326.874-708.763c12.928-24-5.644-53.289-33.084-50.756l-304.413 102.284-300.044-101.014c-32.728-7.518-53.889 25.342-37.392 53.209l327.704 708.868c1.701 2.129 3.525 3.471 6.262 3.969v0zM512.030 664.294l-318.179-690.946c-1.168-7.668 2.341-12.076 9.723-13.498l308.907 103.422 308.887-103.4c6.316 0.172 10.859 6.336 10.567 12.354l-317.871 689.93-2.035 2.137z" />
<glyph unicode="&#xe930;" glyph-name="direction-up-left" d="M137.749 704.048c2.259 0.414 4.565 0.53 6.778-0.232l736.224-266.735c20.746-13.39 20.993-43.918 0-57.352l-284.491-142.561-140.518-280.952c-13.958-27.869-53.581-25.028-63.512 4.443l-262.898 727.963c-2.445 6.182 1.897 14.238 8.417 15.427zM160.33 672.632l256.354-708.92c6.052-6.41 14.142-4.119 18.29 3.039l143.629 287.144 288.538 145.025c8.399 4.507 7.71 15.203-0.636 19.266l-706.175 254.446z" />
<glyph unicode="&#xe931;" glyph-name="direction-up-right" d="M882.606 704.684c9.419 1.49 15.791-5.508 13.782-14.711l-264.359-732.363c-11.566-25.2-45.28-27.387-60.193-4.381l-142.186 284.053-285.103 142.995c-22.943 16.161-20.020 48.295 5.638 60.109l732.421 264.297zM865.164 673.266l-706.365-254.524c-8.201-4.141-8.913-14.647-0.64-19.268l288.264-144.489 147.452-291.813c6.114-5.174 14.018-2.663 17.021 4.403l254.269 705.691z" />
<glyph unicode="&#xe932;" glyph-name="display-projector" d="M873.089 498.708h-722.18c-12.54-0.866-20.358-6.336-22.757-19.116l-0.030-299.668c0.612-6.404 3.061-12.93 8.695-16.429 1.374-0.854 7.394-3.545 8.553-3.545h19.076c-0.512-8.107-0.58-16.495 8.899-18.55l134.006 0.802c7.048 3.755 6.156 10.885 5.978 17.748h388.033c-0.512-8.107-0.58-16.495 8.899-18.55l128.4-0.106c11.027 1.062 11.226 9.479 10.655 18.658v0.002h30.241c7.274 0 16.059 10.969 16.289 18.142l0.034 301.534c-1.072 11.994-11.394 18.882-22.791 19.078zM872.581 183.213h-721.165v292.189h721.165v-292.189zM692.742 186.932c78.186 0 141.566 63.382 141.566 141.566 0 78.186-63.38 141.566-141.566 141.566s-141.566-63.38-141.566-141.566c0-78.186 63.38-141.566 141.566-141.566zM692.744 446.782c65.316 0 118.263-52.949 118.263-118.263 0-65.316-52.949-118.263-118.263-118.263-65.316 0-118.263 52.949-118.263 118.263s52.947 118.263 118.263 118.263zM202.107 398.146h252.217c11.994 1.422 14.064 21.575-1.877 23.287l-251.036-0.216c-12.45-3.103-12.386-21.495 0.696-23.071zM453.394 316.299l-253.427-0.65c-1.468-0.698-3.335-1.36-4.505-2.475l-0.002-0.002c-5.606-5.356-3.879-16.609 3.671-19.43l254.261-0.75c14.028 2.311 14.028 20.995 0.002 23.307zM452.447 263.242l-251.036-0.216c-12.45-3.103-12.386-21.495 0.696-23.071h252.217c11.994 1.424 14.066 21.575-1.877 23.287zM203.061 346.058l250.334-0.022c14.026 2.311 14.026 20.995 0 23.307l-252.933-0.218c-12.414-4.383-10.453-21.579 2.599-23.067zM692.849 218.43c60.793 0 110.078 49.283 110.078 110.078 0 60.793-49.283 110.078-110.078 110.078-60.793 0-110.078-49.283-110.078-110.078 0.002-60.795 49.285-110.078 110.078-110.078zM692.857 415.274c47.923 0 86.773-38.85 86.773-86.773s-38.85-86.773-86.773-86.773c-47.923 0-86.773 38.85-86.773 86.773s38.85 86.773 86.773 86.773zM662.711 249.25c10.581-3.445 39.704-9.471 35.649 10.513-2.051 10.115-11.061 8.081-17.824 9.173-20.991 3.389-40.015 18.638-44.81 39.868-2.043 9.055 0.462 26.104-14.605 24.044-17.187-2.349-8.193-32.022-3.669-42.319 8.259-18.802 25.624-34.889 45.26-41.279z" />
<glyph unicode="&#xe933;" glyph-name="display-projector-video-mute" d="M313.814 160.796c0.958-8.461-0.746-17.742-10.657-18.654l-130.263 0.098c-8.687 2.657-9.671 10.479-8.893 18.556h-19.076c-6.426 0-15.779 9.657-16.307 16.261l0.748 308.23c2.493 5.29 4.906 9.411 10.437 11.896 0.868 0.39 6.616 2.321 6.984 2.321h168.889l-174.014 174.463c-6.188 6.464 2.261 18.016 10.003 14.659l730.746-730.168c4.023-7.018-3.917-15.505-11.266-13.13l-216.296 215.467h-341.035zM392.909 422.27l-53.505 53.969h-187.499v-292.183h479.216l-168.085 168.355c-3.865-2.137-5.768-6.050-11.003-5.55l-249.436 0.014c-9.191 1.11-14.040 11.868-7.898 19.106 0.856 1.008 5.258 4.177 6.058 4.177h244.262l-29.333 28.825-215.665 0.216c-7.618 3.243-10.795 12.128-5.332 18.9 1.094 1.356 5.642 4.169 6.998 4.169h191.222zM877.244 499.504c11.304-1.514 18.49-10.775 19.060-21.883l0.048-294.994c0.422-4.113-4.339-17.211-8.873-17.213-2.361 0-15.917 15.837-19.070 18.182l4.649 0.46v290.787l-1.396 1.396h-297.765c-5.77 7.004-15.107 13.452-20.478 20.466-0.718 0.938-1.795 1.174-1.39 2.797h325.216zM678.39 470.379c122.968 10.061 200.859-124.985 128.134-224.89l-16.155 17.037c8.743 13.822 16.423 29.723 19.158 46.008 17.399 103.598-98.239 178-184.464 117.615l-16.245 16.189c-0.38 1.673 10.741 8.381 12.712 9.527 16.859 9.785 37.296 16.913 56.858 18.514zM784.643 267.804l-16.717 17.187c44.030 78.963-41.971 163.723-120.388 118.815l-15.983 16.609c59.341 40.799 141.328 12.95 165.212-54.429 11.806-33.306 6.57-68.605-12.126-98.183zM201.911 263.86l250.090 0.226c15.755-1.685 15.257-21.675 1.879-23.287l-255.21 0.726c-10.133 6.050-8.425 19.916 3.241 22.335zM460.52 296.965c-1.052-1.050-3.017-1.795-4.301-2.679l-253.625-0.448c-14.206 2.395-14.030 20.875 0 23.305l249.436 0.014c10.345 0.062 15.817-12.866 8.489-20.192z" />
<glyph unicode="&#xe934;" glyph-name="display-tv" d="M862.393 569.428l-700.483-0.272c-18.164-3.143-30.436-16.627-33.312-34.617l0.004-429.978c1.825-18.268 17.087-31.11 34.895-33.034h697.966c16.929 1.891 33.362 14.312 34.895 32.102v433.696c-1.504 17.435-17.145 30.283-33.965 32.102zM163.529 94.828c-2.885 0-11.63 6.658-11.63 9.771v59.088h347.086l-12.13-7.872c-15.625-16.479-13.582-42.307 4.747-55.809l10.177-5.176h-338.248zM512.616 116.865c-7.128 0-12.906 5.778-12.906 12.906s5.778 12.906 12.906 12.906c7.128 0 12.906-5.778 12.906-12.906s-5.778-12.906-12.906-12.906zM873.061 163.683v-60.019c0-2.683-9.201-8.841-11.63-8.841h-338.25l9.605 4.818c19.68 13.202 21.537 40.781 4.363 57.074l-10.245 6.97 346.158-0.002zM873.061 186.948h-721.163v342.901c0 0.426 1.815 7.188 2.117 8.119 1.528 4.727 8.409 8.083 13.198 8.201h692.39c3.633 1.070 13.458-6.076 13.458-8.875v-350.347z" />
<glyph unicode="&#xe935;" glyph-name="display-tv-see-no-evil" d="M373.027 433.972v0 0zM305.117 414.436l0.016 0.016-0.016-0.010zM860.997 568.888h-695.921c-42.395-6.644-35.093-41.895-35.745-74.029-2.609-128.792-0.032-258.045-1.006-386.997 1.598-21.347 16.939-34.473 37.678-36.745l690.346-0.008c10.315 0.724 22.595 5.056 29.865 12.462l0.002-0.002c5.634 5.74 8.775 13.51 9.663 21.501v429.862c-1.020 18.698-17.317 31.462-34.883 33.955zM166.036 94.408c-5.578 0-13.77 6.81-14.196 12.782l0.708 56.060 345.136-0.002-11.199-7.872c-17.103-18.172-12.752-46.833 9.637-58.344 1.993-1.024 5.23-0.938 6.214-2.625h-336.301zM274.674 434.172c-7.134-4.795-10.113-11.908-16.455-1.052-3.979 6.812-2.269 9.031 3.659 13.846 15.395 12.504 41.581 11.982 59.991 7.942 1.695-0.372 5.704-0.788 6.5-2.337-4.311-0.362-9.277 0.498-13.488 0v0.002c-12.304-1.46-29.921-11.49-40.207-18.4zM264.525 415.548c12.822 11.348 29.071 21.935 46.14 25.426 2.989 0.612 15.787 3.081 16.737-0.128 1.444-4.87-18.304-22.457-22.269-26.394l24.478 15.023c4.337 2.967 22.995 9.453 26.24 4.531 1.839-6.454-0.394-10.775-3.635-15.971-6.048-9.697-15.787-17.549-23.839-25.468 0.726-1.388 2.239 0.208 3.057 0.664 8.255 4.597 18.44 11.614 28.157 8.241 1.126-12.952-7.176-26.624-14.094-37.192-18.364-28.053-59.158-68.435-96.018-58.972-42.177 10.827-37.848 76.67-29.505 109.136 0.926 3.599 0.526 7.012 4.705 4.88l0.882 0.646c2.841 7.038 5.822 26.456 16.281 16.313 7.040-6.824 11.274-19.012 22.683-20.736zM375.823 433.972l-0.902 1.791 34.381 13.080c-1.598-9.349-9.917-5.638-16.783-6.932-9.045-1.703-14.298-8.873-14.485-17.87-0.104-4.934 2.939-11.518 2.421-15.581-0.154-1.212-5.418-10.763-6.034-10.761l-6.816 9.951c9.053 21.303-0.674 38.122-24.618 34.817l-4.365 5.936c-0.378 1.953 0.744 1.506 2.121 1.192 5.604-1.276 13.52-4.757 18.958-7.096 2.587-1.114 12.038-4.936 13.394-6.23 0.738-0.704 0.324-1.578-0.066-2.297h2.793zM413.067 439.017c0.792 3.621 12.5 1.679 15.059 1.204 13.612-2.543 28.705-11.728 40.083-19.454 6.622-4.497 7.986-9.933 15.983-2.615 4.665 4.271 16.901 27.495 25.308 17.405h0.002c1.122-1.346 2.181-5.902 2.803-7.906 10.063-32.37 21.081-109.534-20.919-123.675-38.304-12.898-86.467 39.768-102.702 69.824-4.808 8.905-16.231 32.834 4.503 25.898l23.561-11.788c-7.65 7.566-35.751 30.105-32.376 41.659 0.45 1.54 2.457 3.147 4.031 3.439 12.968 2.417 27.339-6.8 38.582-12.060-4.675 6.018-11.682 10.319-13.918 18.070zM425.129 452.579c-0.118 1.468 2.321 1.46 3.373 1.723 17.918 4.495 42.719 4.793 57.942-6.928 3.185-2.451 8.243-6.682 7.356-10.871-0.514-2.435-7.004-9.367-9.557-9.101-1.468 0.154-7.774 5.608-9.893 6.948-14.643 9.253-31.646 17.652-49.221 18.228zM275.346 298.141c2.301-1.104-0.518-3.937 3.269-4.673 7.856-1.524 24.382 9.123 30.89 13.77 22.567 16.105 48.165 46.571 59.036 72.135l4.473 11.79c0.354-2.671 0.942-5.386 1.841-7.932 10.241-28.935 47.323-71.648 75.033-84.977 10.543-5.072 17.992-1.617 19-15.423 2.755-37.758-35.193-64.656-68.117-72.437-44.942-10.625-106.051 5.668-121.736 53.761-0.948 2.905-3.689 12.474-3.689 14.915v19.070zM281.838 225.094c53.255-29.651 130.349-30.375 184.236-1.859 8.721 4.615 16.839 11.972 24.764 16.165 1.126 0.596 2.153 1.2 3.493 1.128 0.852-0.142 1.298-2.605 1.394-3.393 1.44-11.894 2.433-35.837 1.074-47.415-0.16-1.354-0.116-2.391-1.444-3.209l-239.545-0.002c-0.95 18.046-1.298 35.993 0.936 53.959 1.32 0.206 2.305-0.192 3.471-0.714 5.41-2.425 14.975-10.961 21.621-14.659zM512.35 116.584c-7.168 0-12.98 5.812-12.98 12.98s5.812 12.98 12.98 12.98c7.168 0 12.98-5.812 12.98-12.98s-5.812-12.98-12.98-12.98zM872.587 105.107c0-4.369-10.673-10.699-14.419-10.699h-335.369l11.083 6.128c19.29 14.665 19.544 41.399 1.456 57.108l-8.815 5.604h346.066v-58.142zM537.674 375.809c-0.314 4.363-1.829 9.161-2.405 13.418-0.118 0.87-1.004 2.827 1.010 1.935 5.532-2.445 13.232-14.587 14.899-20.456 4.399-15.491-3.579-31.488-17.203-39.074 3.207 14.427 4.775 29.337 3.699 44.176zM872.589 186.51v0l-302.346-0.002-31.716 126.073c0.158 3.673 7.452 5.858 10.611 8.061 10.025 6.996 18.226 17.597 21.769 29.395 5.704 18.984-4.451 43.89-19.76 55.997-3.453 2.729-16.197 8.299-17.239 9.975-1.721 2.769-3.161 12.882-4.822 17.269-9.441 24.912-33.506 53.121-56.832 65.967-3.299 1.817-16.795 7.076-17.89 9.123-1.673 3.127 8.251 5.848 5.168 7.924-2.651 1.783-10.991 4.019-14.491 5.048-11.199 3.293-23.269 5.706-34.813 7.522-0.874 5.74 8.123 5.328 7.454 10.225-51.336 5.504-109.238 2.087-150.223-32.582-21.587-18.26-34.847-41.859-44.248-68.317-2.193-6.176-3.739-19.438-8.937-22.693-6.078-3.809-11.998-5.46-18.018-10.821-29.609-26.358-19.366-76.492 17.575-89.9l-32.912-128.264h-28.371c-0.228 17.203 0.292 34.457 0.038 51.67-1.202 82.030-1.43 164.415 0 246.449 0.254 14.555-1.34 31.538-0.076 45.66 0.822 9.163 6.224 14.537 15.351 15.351l693.593-0.478c2.745-0.59 11.137-6.856 11.137-9.329v-349.323zM211.146 334.423c-16.871 11.232-24.072 29.441-12.83 47.725 2.705 4.397 6.796 9.327 11.906 10.877-2.131-19.76-2.873-38.978 0.924-58.602zM419.239 234.721c25.67 12.876 18.346 38.358-11.071 35.255v0.002c-13.118-1.386-37.792-14.054-30.658-30.153 6.026-13.6 30.736-10.617 41.729-5.104zM383.184 300.4c8.953-7.144 13.962 15.211 6.318 21.647-8.119 6.836-14.38-15.215-6.318-21.647zM359.392 301.13c9.229 1.526 7.65 25.994-0.566 24.8v0c-8.397-1.22-9.081-23.411 0.566-24.8zM311.627 360.463c-1.677 0.306-3.051-1.258-3.721-2.771 1.677-0.308 3.051 1.256 3.721 2.771zM436.020 413.267l0.956 0.944 4.149-4.198-0.956-0.944-4.149 4.198zM441.645 408.586l0.956 0.944 4.149-4.198-0.956-0.944-4.149 4.198zM463.263 380.947c-0.672 1.516-2.043 3.077-3.721 2.771 0.672-1.516 2.043-3.077 3.721-2.771z" />
<glyph unicode="&#xe936;" glyph-name="display-tv-video-freeze" d="M861.917 568.95l-700.483-0.272c-18.164-3.143-30.434-16.627-33.312-34.617l0.004-429.976c1.825-18.268 17.087-31.11 34.895-33.034h697.968c16.929 1.891 33.362 14.312 34.895 32.102v433.694c-1.508 17.435-17.149 30.283-33.967 32.102zM163.053 94.349c-2.885 0-11.63 6.658-11.63 9.771v59.088h347.086l-12.13-7.872c-15.625-16.479-13.582-42.307 4.747-55.809l10.177-5.176h-338.248zM512.14 116.388c-7.128 0-12.906 5.778-12.906 12.906s5.778 12.906 12.906 12.906c7.128 0 12.906-5.778 12.906-12.906s-5.778-12.906-12.906-12.906zM872.583 163.205v-60.019c0-2.683-9.201-8.841-11.63-8.841h-338.25l9.605 4.818c19.68 13.202 21.537 40.781 4.363 57.074l-10.245 6.97 346.158-0.002zM872.583 186.468h-721.163v342.899c0 0.426 1.815 7.188 2.117 8.119 1.528 4.727 8.409 8.083 13.198 8.201h692.388c3.633 1.070 13.456-6.076 13.456-8.875v-350.345zM459.444 309.763c7.668 5.728 27.351 14.465 17.682 27.006-10.441 13.54-31.054-9.987-41.421-14.114l-33.412 18.376c-1.45 0.666-1.388 1.767-1.544 3.109-1.49 12.826 0.842 29.313 0.514 42.399l34.429 19.506c9.769-3.271 33.713-28.639 41.165-10.423 5.864 14.33-10.531 16.221-17.429 24.398 1.336 0.122 2.609 0.712 3.759 1.368 5.392 3.079 20.666 10.503 24.154 13.998 6.222 6.232 3.285 17.806-5.536 19.598-9.867 2.005-24.984-12.164-34.477-15.411v19.076c0 2.995-5.072 7.958-8.103 8.643-22.909 5.182-12.702-28.535-15.619-40.751l-35.909-20.056-33.434 19.584c-0.964 0.708-0.848 1.723-0.972 2.749-1.44 11.888 0.798 27.371 0.512 39.606 8.547 7.404 41.669 14.443 29.325 31.174-8.103 10.983-20.792-1.691-29.783-4.195v32.102c0 3.967-7.612 8.857-11.63 8.857s-11.63-4.89-11.63-8.857v-32.102c-8.921 3.019-24.196 16.105-30.902 2.527-8.167-16.537 21.689-21.759 30.442-29.507l0.498-39.398-37.19-21.581-36.838 20.018c-2.363 12.506 6.38 45.058-16.545 39.826-1.981-0.452-7.172-5.142-7.172-6.78v-19.076c-10.873 2.667-31.526 24.208-39.598 7.496-7.828-16.205 20.446-21.607 29.359-29.369-8.031-6.246-23.261-10.219-18.646-23.305 2.259-6.408 8.737-8.157 14.959-6.496 5.592 1.494 23.235 16.885 26.482 16.917l35.899-20.572-1.008-44.694-32.252-17.952c-4.015-0.344-22.355 15.923-28.899 17.267-13.454 2.759-19.712-11.94-9.075-21.165 2.143-1.859 13.856-8.151 13.468-9.781-0.412-1.717-24.918-12.944-28.313-16.361-7.766-7.82-1.518-21.299 9.719-20.032 8.345 0.944 21.695 13.422 30.694 15.443v-19.076c0-3.557 8.557-8.159 12.312-7.738 16.953 1.905 8.843 29.675 11.404 40.783 10.609 5.37 20.943 12.522 31.488 17.824 1.939 0.976 4.093 2.715 6.218 2.249l32.888-19.064 0.45-41.817c-7.386-5.516-24.11-9.917-30.095-15.963-5.854-5.914-3.845-16.327 4.021-19.26 8.223-3.067 18.52 6.288 26.226 9.023v-33.034c0-3.965 7.576-8.929 11.63-8.929s11.63 4.964 11.63 8.929v31.172c8.869-2.287 17.918-12.832 26.93-5.062 5.034 4.341 5.142 12.496 0.524 17.161-4.375 4.419-25.5 11.792-26.994 14.881l0.142 40.107 34.523 20.222 37.932-20.302c2.863-10.971-6.096-37.892 11.386-38.862 4.777-0.264 12.332 4.755 12.332 9.541v16.285c10.045-4.083 30.526-23.857 38.954-8.719 9.165 16.451-21.119 22.421-29.627 30.582zM377.082 341.861l-32.728-19.32-38.83 22.219c-1.424 0.704-1.394 1.739-1.554 3.099-0.46 3.897-0.328 36.94 0.516 38.68l35.369 21.091 36.189-21.199c1.424-0.704 1.394-1.739 1.554-3.099 1.478-12.506-0.836-28.619-0.516-41.471z" />
<glyph unicode="&#xe937;" glyph-name="display-tv-video-mute" d="M235.864 576.96l-1.432 2.883-107.874 107.852c-6.272 9.525 6.268 21.491 15.383 14.427l747.366-747.404c7.472-9.511-2.817-21.135-13.496-16.371l-123.134 123.277-3.577 2.175-596.208 0.168c-17.471 1.785-33.943 13.874-35.955 32.12l0.008 447.82c1.116 13.554 19.634 33.054 33.104 33.054h85.813zM629.933 182.891l-1.432 2.883-365.732 365.834c-1.172 1.51-2.673 1.28-4.313 1.44-32.622 3.193-70.452-2.527-103.632-0.036-11.554-2.439-13.244-9.025-13.926-19.634l0.046-350.488h488.989zM497.618 158.922h-356.675v-61.843c0-2.317 9.191-9.109 11.027-9.109h348.525l-12.384 7.272c-17.892 14.933-17.85 42.405-0.092 57.46l9.599 6.22zM725.813 87.971l-70.472 70.952h-128.96l9.599-6.22c18.684-15.203 17.694-43.904-1.054-58.416l-11.422-6.316h202.307zM525.418 123.993c0 7.372-5.976 13.348-13.348 13.348s-13.348-5.976-13.348-13.348 5.976-13.348 13.348-13.348 13.348 5.976 13.348 13.348zM907.984 112.899l-23.473 23.029-0.492 22.999-22.999 0.492-23.029 23.473h44.584l1.438 1.438v357.632c0 3.527-6.542 9.219-9.843 10.293l-404.859 0.712c-2.029-0.080-3.241 0.874-4.773 1.937-7.020 4.874-14.891 16.109-21.571 22.053h432.899c12.974 0 32.12-19.994 32.12-33.078v-430.981z" />
<glyph unicode="&#xe938;" glyph-name="display-videowall" d="M896.358 566.629v-492.296h-767.76v492.296h767.76zM314.722 543.362h-162.857v-132.147h162.857v132.147zM500.845 543.362h-162.857v-132.147h162.857v132.147zM686.971 543.362h-162.857v-132.147h162.857v132.147zM873.095 543.362h-162.857v-132.147h162.857v132.147zM314.722 387.019h-162.857v-132.147h162.857v132.147zM500.845 387.019h-162.857v-132.147h162.857v132.147zM686.971 387.019h-162.857v-132.147h162.857v132.147zM873.095 387.019h-162.857v-132.147h162.857v132.147zM314.722 230.674h-162.857v-133.078h162.857v133.078zM500.845 230.674h-162.857v-133.078h162.857v133.078zM686.971 230.674h-162.857v-133.078h162.857v133.078zM873.095 230.674h-162.857v-133.078h162.857v133.078z" />
<glyph unicode="&#xe939;" glyph-name="doc-cam" d="M320.352-29.985c-6.044 12.662-11.254 25.198-12.14 39.5-1.637 26.448 9.743 55.209 31.666 70.318l-108.032 213.861c-1.054 0.67-13.464-3.129-16.277-3.501-53.737-7.080-94.017 42.551-85.683 94.059 9.013 55.715 70.614 86.477 118.565 53.047 4.948-3.449 8.743-7.772 13.58-11.25l196.884 138.633c-16.573 37.882-3.773 85.677 32.944 106.113 21.411 11.916 44.952 12.396 67.611 3.567-0.326 9.147-1.398 18.438 9.855 20.386 30.377-2.065 64.998 3.021 94.87 0.128 6.066-0.588 11.147-4.377 11.582-10.747l0.038-167.514c-0.634-7.198-3.311-10.923-10.691-11.638-30.47-2.953-65.767 2.255-96.752 0.106-10.409 2.281-9.099 11.886-8.903 20.406-29.699-12.786-61.867-6.090-84.716 16.253-0.936 0.916-1.52 1.943-1.931 3.167l-1.228 0.16-196.643-139.258c13.61-31.456 7.984-68.367-15.519-93.407-1.611-1.717-7.868-5.446-7.546-7.46l107.558-213.963c62.982 22.039 116.648-38.504 98.851-100.261-2.111-7.326-6.078-13.61-8.615-20.694h438.699c2.411 0 7.156-5.604 7.714-8.103 0.744-3.325 0.59-17.473-0.532-20.478-0.968-2.593-3.969-5.62-6.692-6.334l-725.317-0.47c-12.11 0.974-12.036 24.406-6.966 31.198 0.702 0.94 4.341 4.179 5.126 4.179l158.638-0.002zM559.275 647.18c-31.588 22.369-72.575 5.244-82.138-31.452-12.942-49.662 36.83-94.005 81.864-63.254l0.274 94.706zM169.015 412.577c-28.269-28.009-20.152-81.648 18.040-96.218 42.939-16.379 79.705 25.69 70.518 67.725-8.889 40.659-57.732 59.034-88.558 28.493v0zM377.832 72.103c-47.285-5.702-62.267-73.179-26.122-101.896l66.387 0.224c41.211 33.845 15.775 108.428-40.265 101.672v0z" />
<glyph unicode="&#xe93a;" glyph-name="edit" d="M782.471 703.844v0.002c-21.599-1.907-41.961-11.532-58.42-25.284l-374.289-373.473c-1.59-2.433-2.155-4.958-2.407-7.824-3.607-40.881 2.809-86.987 0-128.422 0.804-9.127 5.644-12.836 14.413-13.488 41.123-3.061 85.975 2.399 127.494 0l7.824 2.407c101.368 100.765 201.947 202.317 302.751 303.643 22.189 22.301 48.783 45.842 69.338 69.238 62.996 71.702 8.193 181.581-86.705 173.2zM484.577 178.644h-112.537l-1.396 1.396v113.465l295.42 294.294 113.736-113.061-295.224-296.093zM865.863 567.439c-6.070-13.638-17.251-24.232-27.379-34.933-13.398-14.156-27.883-27.379-41.539-41.295l-113.736 113.061 1.298 2.223c30.81 26.446 55.795 69.964 99.825 74.099h-0.002c61.791 5.804 106.885-56.192 81.535-113.155zM698.232 83.104c-1.753-23.353 3.175-48.611-4.203-71.13-9.655-29.471-38.016-50.35-68.972-51.934l-401.814 0.056c-38.54 3.221-68.601 33.302-71.2 72.029l-0.006 400.935c1.709 38.596 32.748 70.106 71.206 72.951 15.881 1.174 34.931-1.865 50.236-0.014 2.187 0.264 5.13 1.625 6.636 3.131h-0.004c6.496 6.496 3.007 17.942-5.95 19.926-26.234-0.502-53.705 3.391-78.849-5.344-37.882-13.162-63.54-47.947-66.523-87.867 0.87-138.469-1.558-277.199 1.226-415.514 6.912-42.121 40.215-75.404 82.31-82.31 141.59-1.981 283.851-1.967 425.453-0.004 46.286 7.766 80.635 46.298 83.532 93.179 0.728 11.776 1.578 39.368-0.098 50.202-1.899 12.282-19.59 13.692-22.979 1.707z" />
<glyph unicode="&#xe93b;" glyph-name="entrance" d="M894.812-45.718c-0.662 1.184-5.456 5.66-6.438 5.66h-157.707v301.922c0 1.146-3.815 6.124-5.236 6.858-2.985 1.542-8.157 1.6-11.272 0.346-2.331-0.938-6.752-6.782-6.752-9.067v-300.062l-472.658 0.006v658.278c0 29.935 36.545 63.4 66.481 62.846l253.121-0.044c14.405 1.647 15.347 20.937 0.95 23.283l-257.737-0.032c-45.992-4.187-82.848-41.731-86.113-87.877l0.038-656.455h-73.967c-1.765 0-5.342-3.169-6.446-4.721-5.602-7.88-0.874-17.015 8.285-18.562l748.578 0.458c7.258 2.579 10.773 10.183 6.874 17.163zM711.6 394.453c13.102-9.619 26.254 7.514 14.893 18.614l-101.894 102.336h261.914c4.385 0 9.405 6.302 9.807 10.697 0.404 4.395-3.475 12.564-7.948 12.564h-264.701l103.762 104.185c10.187 12.482-4.457 26.954-16.745 16.745-41.747-42.555-85.439-83.55-125.853-127.22-2.281-4.683-1.344-9.479 2.061-13.27l124.703-124.651zM541.075 330.351c0-16.895 13.696-30.59 30.59-30.59s30.59 13.696 30.59 30.59-13.696 30.59-30.59 30.59c-16.895 0.002-30.59-13.694-30.59-30.59zM571.611 337.718c4.035 0 7.304-3.269 7.304-7.304s-3.269-7.304-7.304-7.304c-4.033 0-7.304 3.269-7.304 7.304s3.271 7.304 7.304 7.304z" />
</font>
</defs>
</svg>
